<?xml version="1.0" encoding="UTF-8" standalone="no"?>
<svg width="130px" height="130px" viewBox="0 0 130 130" version="1.1" xmlns="http://www.w3.org/2000/svg" xmlns:xlink="http://www.w3.org/1999/xlink" xmlns:sketch="http://www.bohemiancoding.com/sketch/ns">
    <!-- Generator: Sketch 3.5 (25232) - http://www.bohemiancoding.com/sketch -->
    <title>Owl</title>
    <desc>Created with Sketch.</desc>
    <defs>
        <linearGradient x1="50%" y1="0%" x2="50%" y2="100%" id="linearGradient-1">
            <stop stop-color="#D7D7D7" offset="0%"></stop>
            <stop stop-color="#ABABAB" offset="100%"></stop>
        </linearGradient>
        <filter x="-50%" y="-50%" width="200%" height="200%" filterUnits="objectBoundingBox" id="filter-2">
            <feOffset dx="0" dy="10" in="SourceAlpha" result="shadowOffsetOuter1"></feOffset>
            <feGaussianBlur stdDeviation="12.5" in="shadowOffsetOuter1" result="shadowBlurOuter1"></feGaussianBlur>
            <feColorMatrix values="0 0 0 0 0   0 0 0 0 0   0 0 0 0 0  0 0 0 0.0811594203 0" in="shadowBlurOuter1" type="matrix" result="shadowMatrixOuter1"></feColorMatrix>
            <feMerge>
                <feMergeNode in="shadowMatrixOuter1"></feMergeNode>
                <feMergeNode in="SourceGraphic"></feMergeNode>
            </feMerge>
        </filter>
        <rect id="path-3" x="0" y="0" width="1280" height="1829" rx="6"></rect>
    </defs>
    <g id="Qpalx-_-UX" stroke="none" stroke-width="1" fill="none" fill-rule="evenodd" sketch:type="MSPage">
        <g id="Sign-Up---Payment-Provider" sketch:type="MSArtboardGroup" transform="translate(-575.000000, -1569.000000)">
            <g id="Home" sketch:type="MSLayerGroup" transform="translate(0.000000, -5.000000)">
                <g id="Content">
                    <mask id="mask-4" sketch:name="Mask" fill="white">
                        <use xlink:href="#path-3"></use>
                    </mask>
                    <use id="Mask" stroke="url(#linearGradient-1)" fill="#FFFFFF" filter="url(#filter-2)" sketch:type="MSShapeGroup" xlink:href="#path-3"></use>
                    <g id="Site-Content" mask="url(#mask-4)">
                        <g transform="translate(0.000000, 309.000000)" id="Footer">
                            <g transform="translate(0.000000, 1177.000000)">
                                <rect fill="#243342" sketch:type="MSShapeGroup" x="0" y="0" width="1280" height="342"></rect>
                                <g id="Owl" transform="translate(575.000000, 88.000000)">
                                    <g id="Group">
                                        <g id="Artboard"></g>
                                        <g id="Multicolor" sketch:type="MSShapeGroup">
                                            <circle id="Oval" fill="#2C97DE" cx="65" cy="65" r="65"></circle>
                                            <g id="Group" transform="translate(34.272727, 27.181818)">
                                                <path d="M62.6363636,61.3907273 L40.1818182,37.7543636 L21.2727273,37.7543636 L2.63545455,62.9625455 C3.85272727,61.9816364 5.40090909,61.3907273 7.09090909,61.3907273 L62.6363636,61.3907273 L62.6363636,61.3907273 Z" id="Shape" fill="#FA5655"></path>
                                                <path d="M54.34,39.221 C53.6947273,35.347 51.1313636,31.4765455 48.7074545,28.5527273 C47.879,30.1505455 46.5459091,31.4387273 44.9185455,32.2151818 C45.0934545,38.8239091 45.006,45.8049091 41.275,57.9740909 C42.523,59.3485455 44.0061818,60.7868182 45.2116364,61.3907273 C51.7317273,58.7824545 55.6435455,47.0458182 54.34,39.221 L54.34,39.221 Z" id="Shape" fill="#3E3E3F"></path>
                                                <path d="M16.536,32.2151818 C14.9086364,31.4387273 13.5755455,30.1505455 12.7470909,28.5527273 C10.3231818,31.4765455 7.75981818,35.3481818 7.11454545,39.221 C5.811,47.0458182 9.72281818,58.7824545 16.2429091,61.3907273 C17.4495455,60.788 18.9315455,59.3485455 20.1795455,57.9740909 C16.4485455,45.8060909 16.3610909,38.8250909 16.536,32.2151818 L16.536,32.2151818 Z" id="Shape" fill="#3E3E3F"></path>
                                                <path d="M41.3636364,33.0270909 C36.7947273,33.0270909 33.0909091,29.3232727 33.0909091,24.7543636 C33.0909091,24.4778182 33.1050909,24.2036364 33.1322727,23.9341818 C31.5238182,23.4673636 29.9307273,23.4673636 28.3222727,23.9341818 C28.3494545,24.2036364 28.3636364,24.4766364 28.3636364,24.7543636 C28.3636364,29.3232727 24.6598182,33.0270909 20.0909091,33.0270909 C18.8169091,33.0270909 17.615,32.7304545 16.536,32.2151818 C16.3457273,39.4207273 16.4544545,47.0517273 21.2727273,61.3907273 L30.7272727,61.3907273 L40.1818182,61.3907273 C45.0000909,47.0529091 45.1088182,39.4219091 44.9185455,32.2151818 C43.8395455,32.7304545 42.6376364,33.0270909 41.3636364,33.0270909 L41.3636364,33.0270909 Z" id="Shape" fill="#5B5C5F"></path>
                                                <path d="M28.3222727,23.933 C28.3482727,24.2036364 28.3636364,24.4766364 28.3636364,24.7543636 C28.3636364,29.3232727 24.6598182,33.0270909 20.0909091,33.0270909 C18.8169091,33.0270909 17.6138182,32.7304545 16.536,32.2151818 C16.3457273,39.4207273 16.4544545,47.0517273 21.2727273,61.3907273 L30.7272727,61.3907273 L30.7272727,23.5843636 C29.9271818,23.5843636 29.1270909,23.7001818 28.3222727,23.933 L28.3222727,23.933 Z" id="Shape" fill="#9E9FA0"></path>
                                                <path d="M48.4545455,11.5759091 L48.4545455,17.7272727 L50.8181818,14.1818182 L53.1818182,17.7272727 L53.1818182,10.5831818 L48.4545455,11.5759091 Z" id="Shape" fill="#DF2C2C"></path>
                                                <path d="M54.7370909,8.00563636 L31.1007273,0.0602727273 C30.8584545,-0.0200909091 30.5960909,-0.0200909091 30.3526364,0.0602727273 L6.71627273,8.00563636 C6.20927273,8.17463636 5.87954545,8.66272727 5.91027273,9.19572727 C5.941,9.72872727 6.32627273,10.1754545 6.84863636,10.2841818 L17.7272727,12.5981818 L17.7272727,24.8181818 L43.7272727,24.8181818 L43.7272727,12.5981818 L54.6047273,10.2841818 C55.1270909,10.1754545 55.5135455,9.72872727 55.5430909,9.19572727 C55.5738182,8.66272727 55.2440909,8.17463636 54.7370909,8.00563636 L54.7370909,8.00563636 Z" id="Shape" fill="#3E3E3F"></path>
                                                <path d="M6.71745455,8.00563636 C6.21045455,8.17463636 5.88072727,8.66272727 5.91145455,9.19572727 C5.94218182,9.72872727 6.32745455,10.1754545 6.84981818,10.2841818 L30.4861818,15.314 C30.5653636,15.3305455 30.6469091,15.314 30.7272727,15.314 L30.7272727,0 C30.6008182,0 30.4743636,0.0200909091 30.3538182,0.0602727273 L6.71745455,8.00563636 L6.71745455,8.00563636 Z" id="Shape" fill="#5B5C5F"></path>
                                                <path d="M62.6363636,61.3907273 L62.6363636,62.5725455 C62.6363636,63.2249091 62.1069091,63.7543636 61.4545455,63.7543636 L7.09090909,63.7543636 C4.51690909,63.7543636 2.36363636,65.8509091 2.36363636,68.4816364 C2.36363636,71.0934545 4.47909091,73.2089091 7.09090909,73.2089091 L61.4545455,73.2089091 C62.1069091,73.2089091 62.6363636,73.7383636 62.6363636,74.3907273 C62.6363636,75.0430909 62.1069091,75.5725455 61.4545455,75.5725455 L7.09090909,75.5725455 C3.17909091,75.5725455 0,72.3934545 0,68.4816364 C0,66.2598182 1.02818182,64.2625455 2.63545455,62.9625455 C3.85272727,61.9816364 5.40090909,61.3907273 7.09090909,61.3907273 L62.6363636,61.3907273 L62.6363636,61.3907273 Z" id="Shape" fill="#DF2C2C"></path>
                                                <path d="M59.0909091,63.7543636 L59.0909091,73.2089091 L7.09090909,73.2089091 C4.51690909,73.2089091 2.36363636,71.1111818 2.36363636,68.4816364 C2.36363636,65.8520909 4.51690909,63.7543636 7.09090909,63.7543636 L59.0909091,63.7543636 L59.0909091,63.7543636 Z" id="Shape" fill="#FFFFFF"></path>
                                                <path d="M59.0909091,64.9361818 L59.0909091,67.2998182 L2.51727273,67.2998182 C2.75363636,66.3661818 3.27363636,65.5507273 3.97090909,64.9361818 L59.0909091,64.9361818 L59.0909091,64.9361818 Z" id="Shape" fill="#E2E4E5"></path>
                                                <path d="M59.0909091,69.6634545 L59.0909091,72.0270909 L3.97090909,72.0270909 C3.27363636,71.4125455 2.75363636,70.5970909 2.51727273,69.6634545 L59.0909091,69.6634545 L59.0909091,69.6634545 Z" id="Shape" fill="#E2E4E5"></path>
                                                <path d="M44.9090909,59.0270909 C40.1818182,55.8751818 35.4545455,55.8751818 30.7272727,59.0270909 C26,55.8751818 21.2727273,55.8751818 16.5454545,59.0270909 C15.7571818,61.3907273 16.5454545,63.7543636 18.9090909,66.118 L21.2727273,61.3907273 L23.6363636,66.118 L26,61.3907273 L28.3636364,66.118 C29.5454545,64.9361818 30.3337273,63.7543636 30.7272727,62.5725455 C31.1208182,63.7543636 31.9090909,64.9361818 33.0909091,66.118 L35.4545455,61.3907273 L37.8181818,66.118 L40.1818182,61.3907273 L42.5454545,66.118 C44.9090909,63.7543636 45.6973636,61.3907273 44.9090909,59.0270909 L44.9090909,59.0270909 Z" id="Shape" fill="#FACB1B"></path>
                                                <path d="M31.5569091,31.6242727 C31.0971818,31.1704545 30.3573636,31.1704545 29.8964545,31.6242727 C29.1341818,32.3759091 27.8471818,33.3769091 26.0354545,33.8839091 C25.6135455,34.0020909 25.2909091,34.3448182 25.1987273,34.7726364 C25.1065455,35.2016364 25.259,35.6448182 25.5958182,35.9272727 C27.7467273,37.7330909 30.7272727,40.118 30.7272727,40.118 C30.7272727,40.118 33.7078182,37.7330909 35.8587273,35.9272727 C36.1943636,35.646 36.3468182,35.2016364 36.2546364,34.7726364 C36.1624545,34.3436364 35.841,34.0020909 35.4190909,33.8839091 C33.6061818,33.3769091 32.3191818,32.3759091 31.5569091,31.6242727 L31.5569091,31.6242727 Z" id="Shape" fill="#FACB1B"></path>
                                                <path d="M41.3636364,16.4816364 C37.8961818,16.4816364 34.9321818,18.616 33.7019091,21.6414545 C31.7211818,21.0848182 29.7333636,21.0848182 27.7526364,21.6414545 C26.5223636,18.616 23.5583636,16.4816364 20.0909091,16.4816364 C15.522,16.4816364 11.8181818,20.1854545 11.8181818,24.7543636 C11.8181818,29.3232727 15.522,33.0270909 20.0909091,33.0270909 C24.6598182,33.0270909 28.3636364,29.3232727 28.3636364,24.7543636 C28.3636364,24.4778182 28.3494545,24.2036364 28.3222727,23.9341818 C29.9307273,23.4673636 31.5238182,23.4673636 33.1322727,23.9341818 C33.1050909,24.2036364 33.0909091,24.4766364 33.0909091,24.7543636 C33.0909091,29.3232727 36.7947273,33.0270909 41.3636364,33.0270909 C45.9325455,33.0270909 49.6363636,29.3232727 49.6363636,24.7543636 C49.6363636,20.1854545 45.9325455,16.4816364 41.3636364,16.4816364 L41.3636364,16.4816364 Z" id="Shape" fill="#FACB1B"></path>
                                                <ellipse id="Oval" fill="#C9F2F8" cx="20.0909091" cy="24.7543636" rx="5.90909091" ry="5.90909091"></ellipse>
                                                <path d="M20.0909091,18.8452727 C16.8279091,18.8452727 14.1818182,21.4913636 14.1818182,24.7543636 C14.1818182,26.3450909 14.8176364,27.7821818 15.8399091,28.8446364 L24.1811818,20.5033636 C23.1187273,19.4810909 21.6816364,18.8452727 20.0909091,18.8452727 L20.0909091,18.8452727 Z" id="Shape" fill="#FFFFFF"></path>
                                                <ellipse id="Oval" fill="#C9F2F8" cx="41.3636364" cy="24.7543636" rx="5.90909091" ry="5.90909091"></ellipse>
                                                <path d="M41.3636364,18.8452727 C38.1006364,18.8452727 35.4545455,21.4913636 35.4545455,24.7543636 C35.4545455,26.3450909 36.0903636,27.7821818 37.1126364,28.8446364 L45.4539091,20.5033636 C44.3914545,19.4810909 42.9543636,18.8452727 41.3636364,18.8452727 L41.3636364,18.8452727 Z" id="Shape" fill="#FFFFFF"></path>
                                                <path d="M20.0909091,22.3907273 C19.279,22.3907273 18.5628182,22.8008182 18.1373636,23.4248182 L20.0909091,24.5522727 L17.9695455,25.7766364 C18.3512727,26.5672727 19.1537273,27.1168182 20.0909091,27.1168182 C21.3956364,27.1168182 22.4545455,26.0590909 22.4545455,24.7531818 C22.4545455,23.4484545 21.3956364,22.3907273 20.0909091,22.3907273 L20.0909091,22.3907273 Z" id="Shape" fill="#3E3E3F"></path>
                                                <path d="M41.3636364,22.3907273 C40.5517273,22.3907273 39.8355455,22.8008182 39.4100909,23.4248182 L41.3636364,24.5522727 L39.2422727,25.7766364 C39.624,26.5672727 40.4264545,27.1168182 41.3636364,27.1168182 C42.6683636,27.1168182 43.7272727,26.0590909 43.7272727,24.7531818 C43.7272727,23.4484545 42.6683636,22.3907273 41.3636364,22.3907273 L41.3636364,22.3907273 Z" id="Shape" fill="#3E3E3F"></path>
                                                <path d="M29.8976364,31.6242727 C29.1353636,32.3759091 27.8483636,33.3769091 26.0354545,33.8839091 C25.6135455,34.0020909 25.2909091,34.3448182 25.1987273,34.7726364 C25.1065455,35.2004545 25.259,35.6448182 25.5946364,35.9272727 C27.7467273,37.7330909 30.7272727,40.118 30.7272727,40.118 L30.7272727,31.2839091 C30.4270909,31.2839091 30.1269091,31.3973636 29.8976364,31.6242727 L29.8976364,31.6242727 Z" id="Shape" fill="#FBE158"></path>
                                            </g>
                                        </g>
                                    </g>
                                </g>
                            </g>
                        </g>
                    </g>
                </g>
            </g>
        </g>
    </g>
</svg>