<?xml version="1.0" standalone="no"?>
<!DOCTYPE svg PUBLIC "-//W3C//DTD SVG 20010904//EN"
 "http://www.w3.org/TR/2001/REC-SVG-20010904/DTD/svg10.dtd">
<svg version="1.0" xmlns="http://www.w3.org/2000/svg"
 width="498.000000pt" height="646.000000pt" viewBox="0 0 498.000000 646.000000"
 preserveAspectRatio="xMidYMid meet">
<metadata>
Created by potrace 1.13, written by Peter Selinger 2001-2015
</metadata>
<g transform="translate(0.000000,646.000000) scale(0.100000,-0.100000)"
fill="#000000" stroke="none">
<path d="M410 5943 c0 -10 20 -106 44 -213 24 -107 49 -221 56 -252 l11 -58
95 0 c52 0 94 4 94 9 0 12 59 341 66 371 5 17 19 -40 45 -175 21 -110 38 -201
38 -203 1 -1 42 -1 93 0 l92 3 58 255 c31 140 57 261 57 268 1 8 -19 12 -68
12 l-69 0 -10 -57 c-5 -32 -20 -121 -33 -197 -15 -95 -25 -133 -31 -120 -6 17
-68 346 -68 367 0 4 -42 7 -94 7 l-93 0 -33 -190 c-19 -104 -36 -190 -40 -190
-3 0 -18 78 -33 173 -16 94 -31 180 -33 190 -4 14 -17 17 -75 17 -59 0 -69 -3
-69 -17z"/>
<path d="M1230 5690 l0 -270 70 0 70 0 0 270 0 270 -70 0 -70 0 0 -270z"/>
<path d="M1480 5690 l0 -270 65 0 65 0 0 183 1 182 92 -180 92 -180 88 -3 87
-3 0 31 c0 16 0 127 0 245 0 118 0 226 0 240 0 24 -3 25 -63 25 l-63 0 2 -170
c1 -93 -1 -170 -5 -170 -4 0 -45 77 -91 170 l-85 170 -92 0 -93 0 0 -270z"/>
<path d="M2040 5910 l0 -50 65 0 65 0 0 -220 0 -220 60 0 c33 0 60 -4 60 -10
0 -5 6 -10 14 -10 7 0 16 -13 20 -30 7 -38 26 -39 26 -1 0 16 9 39 21 52 l20
24 -5 -33 c-4 -22 0 -38 11 -52 23 -26 37 -26 23 1 -14 24 2 49 31 49 11 0 19
6 19 13 0 8 4 7 10 -3 9 -13 10 -13 10 0 1 11 4 10 15 -4 14 -18 15 -18 15 -2
0 34 -29 49 -101 53 -55 3 -69 1 -69 -11 0 -8 -8 -13 -17 -12 -17 3 -18 20
-18 207 l0 204 68 3 67 3 0 49 0 50 -205 0 -205 0 0 -50z"/>
<path d="M2506 5944 c-3 -9 -6 -121 -6 -250 0 -198 2 -234 15 -234 7 0 19 8
24 18 10 16 10 15 11 -3 0 -11 -4 -36 -10 -55 -6 -22 -6 -38 0 -44 13 -13 32
41 24 66 -4 15 -2 19 12 16 13 -2 18 -14 19 -51 3 -56 15 -76 16 -26 0 28 2
30 9 14 8 -18 9 -17 9 8 1 25 3 26 21 15 11 -7 20 -19 20 -26 0 -8 9 -12 22
-10 15 2 23 -2 23 -12 1 -8 6 -14 12 -13 6 1 13 -19 17 -45 3 -26 13 -58 22
-70 8 -12 12 -27 9 -32 -3 -6 1 -10 9 -10 8 0 19 -6 23 -13 11 -16 53 -38 81
-40 12 0 22 -4 22 -8 0 -4 9 -5 20 -2 33 9 21 30 -13 24 -5 -1 -8 9 -7 21 4
44 2 47 -30 38 -29 -8 -30 -7 -30 21 0 17 -4 28 -9 24 -5 -3 -12 -1 -16 5 -3
5 2 10 11 10 14 0 15 3 6 12 -7 7 -12 20 -12 31 0 11 -4 15 -11 11 -7 -4 -10
-1 -7 7 3 8 11 13 18 11 7 -1 18 2 26 9 11 9 16 6 24 -16 5 -14 14 -23 20 -20
5 3 10 1 10 -4 0 -6 11 -11 23 -11 13 0 32 -8 41 -19 9 -10 31 -21 47 -25 21
-4 33 -14 40 -33 7 -20 25 -35 64 -53 39 -18 53 -29 50 -41 -9 -28 25 -17 41
13 15 30 12 42 -27 98 -21 31 -33 80 -20 80 6 0 8 7 5 15 -9 23 -18 18 -32
-17 -12 -31 -12 -31 -33 -12 -12 10 -23 18 -25 17 -15 -6 -43 13 -48 33 -6 23
-26 34 -26 14 0 -14 -33 1 -49 23 -7 10 -20 16 -28 12 -27 -10 -43 15 -43 66
l0 49 -120 0 -120 0 0 60 0 60 110 0 110 0 0 50 0 50 -110 0 -110 0 0 55 0 55
115 0 115 0 0 50 0 50 -184 0 c-158 0 -185 -2 -190 -16z"/>
<path d="M2975 5938 c-3 -13 -4 -133 -3 -268 l3 -245 72 -3 72 -3 3 108 3 108
35 -3 c45 -3 62 -26 95 -129 l26 -83 75 0 c41 0 74 2 74 4 0 23 -86 235 -101
247 -18 16 -17 18 16 40 86 59 77 184 -16 231 -28 15 -61 18 -191 18 -155 0
-158 0 -163 -22z m255 -91 c19 -10 25 -20 25 -47 0 -42 -28 -60 -92 -60 l-43
0 0 60 0 60 43 0 c23 0 53 -6 67 -13z"/>
<path d="M3520 5674 c-108 -45 -104 -204 6 -250 36 -15 141 -19 162 -5 9 5 12
28 10 77 l-3 69 -53 3 c-51 3 -53 2 -50 -20 2 -13 9 -22 17 -20 8 2 17 -2 21
-9 9 -13 -3 -65 -13 -61 -4 1 -18 2 -32 2 -36 0 -75 42 -75 80 0 75 43 107
136 98 33 -3 39 0 42 18 2 15 -4 23 -20 28 -39 10 -111 6 -148 -10z"/>
<path d="M3733 5684 c-18 -8 -17 -165 1 -209 36 -85 186 -87 216 -2 5 17 10
72 10 124 l0 94 -27 -3 -28 -3 -6 -101 c-4 -56 -9 -106 -13 -112 -10 -16 -55
-20 -73 -6 -15 10 -19 33 -23 116 -5 94 -7 103 -25 105 -11 1 -26 -1 -32 -3z"/>
<path d="M3994 5675 c-3 -6 -3 -67 -2 -136 l3 -124 30 0 30 0 0 135 0 135 -28
1 c-16 1 -31 -4 -33 -11z"/>
<path d="M4095 5678 c-3 -8 -4 -70 -3 -139 l3 -124 75 1 c123 0 175 42 174
137 -1 94 -38 123 -171 134 -58 5 -74 3 -78 -9z m138 -49 c42 -19 62 -94 34
-130 -17 -23 -52 -39 -81 -39 -26 0 -26 0 -26 90 0 89 0 90 25 90 13 0 35 -5
48 -11z"/>
<path d="M4374 5677 c-2 -7 -3 -69 -2 -138 l3 -124 93 -3 92 -3 0 26 c0 24 -2
25 -65 25 -62 0 -65 1 -61 23 3 12 5 28 5 35 1 8 19 12 57 12 52 0 55 1 52 23
-3 19 -10 22 -54 25 -46 3 -52 6 -56 27 -3 14 -3 27 0 30 3 3 32 5 64 5 55 0
58 1 58 25 0 25 -1 25 -90 25 -65 0 -92 -4 -96 -13z"/>
<path d="M2170 5358 c-19 -5 -50 -12 -67 -15 -18 -3 -33 -9 -33 -15 0 -5 -5
-6 -10 -3 -16 10 -48 -4 -55 -24 -3 -11 -19 -24 -36 -31 -26 -11 -29 -16 -23
-43 6 -30 3 -34 -79 -104 -24 -20 -25 -24 -15 -64 10 -36 13 -40 23 -25 14 19
35 21 36 4 1 -18 21 29 35 82 10 39 13 42 19 23 9 -27 25 -30 25 -5 0 22 49
44 84 38 14 -2 25 -2 24 2 -1 4 2 14 5 22 3 8 7 24 9 35 2 11 12 21 23 23 24
5 105 82 105 100 0 14 -20 14 -70 0z"/>
<path d="M2652 5167 c-18 -24 -25 -40 -15 -34 6 4 18 -2 27 -12 19 -21 3 -42
-17 -22 -18 18 -41 13 -61 -13 -19 -26 -41 -25 -63 2 -7 8 -23 15 -37 15 -15
0 -28 6 -31 16 -7 23 -92 22 -110 -2 -13 -19 -35 -23 -35 -7 0 6 -7 10 -16 10
-8 0 -12 -4 -9 -10 3 -5 -1 -10 -10 -10 -33 0 -8 -25 26 -26 100 -2 113 -10
57 -32 -18 -7 -40 -18 -48 -23 -8 -5 -22 -12 -30 -15 -8 -3 -27 -12 -42 -20
-14 -8 -36 -14 -47 -14 -12 0 -31 -11 -43 -25 -12 -14 -28 -23 -35 -21 -7 3
-13 0 -13 -7 0 -18 -35 -36 -59 -30 -14 3 -21 1 -21 -8 0 -12 -2 -12 -9 0 -7
11 -11 9 -20 -8 -13 -23 -31 -28 -31 -8 0 19 62 59 74 47 6 -6 16 -10 24 -10
12 0 12 3 2 15 -10 12 -10 18 0 30 7 8 16 12 22 9 14 -9 38 16 38 42 0 12 5
26 10 29 6 3 10 15 10 25 0 15 -6 18 -27 16 -16 -2 -28 -5 -28 -6 0 -1 -9 -3
-20 -5 -10 -2 -26 -13 -35 -23 -8 -11 -25 -23 -38 -27 -18 -5 -21 -10 -12 -20
6 -8 20 -12 31 -10 11 2 17 0 14 -6 -4 -5 -11 -7 -16 -4 -5 4 -9 0 -9 -7 0 -8
-13 -21 -28 -30 -27 -16 -29 -16 -40 3 -7 11 -10 24 -7 29 3 4 -1 11 -7 13
-10 4 -10 6 0 6 14 1 17 31 2 31 -5 0 -13 -18 -16 -40 -7 -44 -11 -48 -29 -23
-11 15 -13 15 -24 -5 -8 -16 -8 -22 -1 -22 6 0 8 -4 5 -10 -3 -5 1 -23 10 -39
20 -40 19 -48 -5 -26 -19 18 -20 17 -20 -3 0 -12 -4 -22 -10 -22 -5 0 -10 9
-10 20 0 11 -7 20 -15 20 -9 0 -12 -6 -9 -15 9 -24 -15 -45 -50 -44 -17 0 -25
3 -18 6 16 6 16 33 -1 33 -7 0 -24 14 -39 30 -16 18 -21 30 -13 30 7 0 15 7
19 15 3 8 12 15 21 15 10 0 4 10 -17 30 l-33 29 30 1 c23 0 27 3 15 10 -8 5
-26 10 -40 10 -19 0 -21 3 -11 9 8 5 21 7 30 4 11 -3 11 -1 -2 7 -11 7 -30 9
-45 5 -15 -4 -22 -9 -15 -12 12 -5 -19 -73 -48 -106 -18 -19 -30 -63 -21 -72
3 -3 11 0 18 6 7 6 19 9 26 6 8 -3 5 -6 -6 -6 -18 -1 -18 -2 -2 -19 15 -18 15
-21 -5 -45 -24 -32 -43 -35 -36 -7 3 13 0 20 -9 20 -8 0 -14 -5 -14 -11 0 -6
-11 -20 -25 -31 -17 -13 -25 -29 -25 -51 0 -18 -5 -50 -11 -72 -17 -59 -17
-165 -1 -165 7 0 10 -5 7 -11 -7 -10 -14 -46 -18 -85 -1 -11 -7 -27 -14 -35
-6 -8 -14 -26 -17 -42 -3 -15 -8 -38 -11 -50 -2 -13 -16 -35 -30 -49 -28 -28
-24 -35 32 -57 34 -14 108 -7 98 9 -10 16 13 20 28 6 8 -8 17 -12 21 -9 3 4 6
1 6 -5 0 -7 -4 -12 -10 -12 -16 0 -11 -26 8 -43 10 -10 27 -17 37 -17 27 0 85
-48 85 -71 0 -11 7 -22 16 -26 9 -3 78 1 153 11 106 13 218 16 511 16 206 -1
434 4 505 10 255 20 363 23 422 12 32 -6 87 -14 123 -17 53 -4 69 -10 88 -31
12 -14 22 -34 22 -45 0 -17 5 -19 35 -13 33 6 35 5 35 -20 0 -14 5 -26 11 -26
6 0 8 9 4 23 -14 45 -31 72 -45 72 -8 0 -25 15 -38 33 -21 29 -22 37 -12 68
12 35 6 62 -6 30 -3 -9 -17 -16 -32 -16 -25 0 -25 -1 -6 -15 18 -14 18 -14 0
-15 -12 0 -16 -5 -12 -15 4 -11 0 -15 -12 -13 -24 4 -39 27 -47 71 -7 35 -24
51 -26 25 -1 -7 -5 -2 -9 12 -7 21 -8 19 -9 -17 -1 -41 11 -57 22 -30 3 6 6 3
6 -8 1 -27 -60 -32 -89 -8 -20 17 -28 39 -11 29 5 -3 11 8 15 25 5 25 10 30
25 26 12 -3 22 1 25 10 4 8 12 13 19 10 8 -3 20 -1 27 3 11 7 10 11 -3 25 -22
22 -49 16 -64 -15 -10 -20 -13 -21 -13 -6 0 14 -6 17 -25 14 -14 -3 -25 -1
-25 6 0 6 -7 3 -14 -7 -9 -12 -22 -16 -40 -13 -15 3 -32 -1 -40 -9 -8 -8 -17
-10 -22 -5 -5 5 -10 -4 -11 -22 -3 -39 -9 -45 -33 -30 -23 14 -25 10 -8 -17 9
-15 8 -22 -4 -34 -9 -10 -20 -12 -28 -7 -8 5 -17 7 -21 4 -11 -6 -59 17 -54
26 3 4 -5 10 -16 13 -16 4 -19 11 -14 26 5 17 2 21 -17 22 -13 1 -29 1 -35 0
-7 -1 -13 2 -13 8 0 5 -8 12 -17 14 -10 3 2 3 27 0 43 -6 44 -5 29 13 -29 35
-31 44 -10 44 13 0 19 -5 15 -14 -3 -7 3 -16 13 -19 10 -2 27 -8 38 -12 12 -5
3 9 -22 34 -24 22 -43 45 -43 50 0 5 -10 12 -22 15 -22 6 -22 7 -5 20 16 13
16 14 -5 19 -27 7 -41 -1 -34 -19 3 -8 -1 -14 -10 -14 -10 0 -14 6 -11 15 5
11 1 12 -20 4 -21 -8 -24 -7 -20 5 4 9 2 18 -3 21 -4 3 -10 0 -12 -6 -3 -9
-10 -9 -26 0 -26 14 -42 7 -42 -19 0 -20 19 -30 58 -30 20 0 23 -3 14 -12 -20
-20 -14 -25 35 -33 26 -4 56 -14 68 -22 17 -13 17 -15 2 -9 -51 17 -70 18 -78
5 -7 -12 -9 -12 -9 0 0 11 -12 12 -60 7 -39 -5 -60 -3 -60 3 0 6 -11 13 -25
17 -18 4 -25 13 -25 30 0 15 -6 24 -15 24 -8 0 -15 -4 -15 -10 0 -5 -7 -10
-15 -10 -8 0 -15 -5 -15 -10 0 -6 7 -13 15 -16 8 -4 15 -10 15 -16 0 -5 -4 -6
-10 -3 -5 3 -10 -1 -10 -9 0 -9 -7 -16 -15 -16 -8 0 -15 -4 -15 -8 0 -13 -97
-44 -118 -38 -20 7 -26 37 -9 47 13 9 0 29 -18 29 -9 0 -12 6 -8 16 5 14 2 16
-21 10 -18 -4 -25 -3 -21 4 3 5 -2 10 -11 10 -10 0 -25 7 -35 16 -11 10 -19
12 -24 5 -3 -6 -1 -11 4 -11 6 0 11 -7 11 -16 0 -10 -6 -14 -14 -11 -26 10
-38 -49 -14 -64 6 -4 2 -12 -11 -18 -29 -16 -52 5 -40 36 5 13 5 22 1 22 -4
-1 -15 -1 -26 0 -15 1 -16 4 -6 16 10 12 10 15 -1 15 -28 0 -148 43 -143 51 8
14 -12 10 -45 -8 -28 -17 -49 -53 -30 -53 5 0 9 5 9 10 0 6 7 10 15 10 8 0 15
5 15 10 0 15 16 12 34 -5 8 -8 31 -15 50 -15 38 0 51 -22 19 -34 -14 -6 -14
-8 3 -21 17 -13 17 -14 2 -15 -9 0 -19 4 -23 10 -3 5 -13 7 -23 4 -14 -5 -15
-4 -2 5 14 10 13 12 -9 15 -5 0 -12 4 -15 7 -9 9 -56 -2 -56 -13 0 -5 9 -7 19
-3 11 3 22 1 26 -5 9 -14 -38 -13 -53 2 -10 10 -17 10 -33 0 -12 -8 -18 -9
-15 -4 3 5 -3 12 -13 15 -14 3 -18 1 -14 -9 4 -10 0 -12 -11 -8 -11 4 -16 2
-14 -6 5 -20 -19 -23 -26 -3 -5 11 -1 22 10 30 19 14 10 17 -28 14 -22 -3 -23
12 -3 29 16 13 21 40 7 40 -4 0 -13 -5 -19 -11 -6 -6 -16 -8 -22 -5 -19 12
-12 32 14 44 33 15 36 15 28 -4 -4 -12 0 -15 18 -12 13 1 24 10 24 18 0 8 9
16 20 19 18 3 18 2 5 -15 -8 -11 -22 -24 -30 -31 -19 -16 -8 -16 25 -1 18 8
22 14 13 20 -9 5 -8 8 5 8 14 0 17 5 12 21 -6 19 -4 21 23 17 17 -2 29 -1 26
4 -3 4 -11 8 -17 8 -7 0 -13 9 -13 20 0 15 5 19 19 14 11 -4 17 -2 14 3 -4 6
16 34 43 63 27 30 47 56 45 59 -3 2 -11 -1 -17 -7 -7 -7 -28 -12 -48 -12 -19
0 -45 -7 -57 -15 -14 -10 -24 -11 -28 -5 -4 6 -22 2 -47 -11 -22 -11 -46 -18
-53 -15 -19 7 -23 46 -8 76 23 44 12 86 -31 122 -30 25 -34 23 -34 -22 -1 -22
-4 -50 -7 -61 -6 -17 -4 -20 6 -13 12 7 12 5 1 -9 -8 -9 -17 -15 -20 -14 -10
3 -94 -57 -114 -81 -9 -11 -14 -23 -11 -26 4 -3 2 -6 -4 -6 -5 0 -9 -16 -8
-35 1 -19 -3 -35 -8 -35 -5 0 -7 -7 -3 -15 3 -9 -3 -19 -14 -25 -11 -6 -20
-15 -20 -20 0 -13 57 -13 65 0 3 6 19 10 36 10 16 0 28 3 28 8 -4 21 3 32 20
32 24 0 54 -39 42 -54 -14 -18 -10 -66 5 -66 21 0 17 -41 -5 -47 -13 -3 -17
-11 -13 -25 4 -15 7 -17 13 -6 5 7 9 9 9 3 0 -5 -5 -17 -10 -25 -5 -8 -10 -10
-10 -4 0 6 -15 15 -32 21 -29 8 -33 13 -32 41 1 24 -3 32 -17 32 -10 0 -21 5
-24 10 -3 6 -15 10 -25 10 -10 0 -23 6 -27 14 -4 8 -21 16 -38 18 -22 2 -29 8
-27 20 2 13 -3 16 -20 13 -19 -4 -16 2 18 33 23 20 46 52 52 70 l11 32 -42 -5
c-39 -4 -40 -4 -9 4 31 8 66 31 48 31 -5 0 -3 7 4 15 9 10 9 15 1 15 -6 0 -11
7 -11 15 0 8 5 15 10 15 19 0 10 25 -15 44 -19 15 -23 22 -14 32 9 11 8 14 -1
14 -8 0 -10 9 -6 28 4 15 7 32 8 38 2 12 58 15 58 2 0 -4 7 -8 15 -8 22 0 2
37 -25 45 -26 8 -26 22 1 30 22 7 43 -5 21 -12 -10 -4 -10 -8 -1 -19 13 -16
33 -19 24 -4 -6 10 7 14 33 11 6 -1 12 5 12 12 0 16 21 27 48 27 12 -1 10 -4
-7 -14 -24 -14 -24 -14 -3 -20 12 -4 26 -4 32 -1 5 3 10 2 10 -4 0 -5 -4 -13
-10 -16 -18 -11 -11 -27 10 -22 12 3 28 -3 42 -18 18 -18 27 -21 52 -15 17 5
42 7 56 6 33 -4 62 14 49 30 -6 8 -3 13 12 17 13 4 18 10 13 18 -4 7 -3 10 4
5 5 -3 12 -1 14 4 2 6 17 12 33 13 18 1 33 9 37 20 4 9 13 17 20 17 9 0 9 -3
-2 -10 -12 -8 -9 -10 12 -10 15 0 30 5 33 10 4 6 11 7 17 4 6 -4 9 -1 6 7 -2
7 -20 17 -39 22 -30 8 -32 10 -17 21 10 7 15 15 13 18 -3 3 4 13 15 23 16 14
23 16 32 7 19 -19 66 -14 77 7 7 12 27 21 56 26 37 5 44 9 35 20 -6 7 -13 25
-16 40 -4 23 -2 25 14 16 24 -13 85 -11 95 3 6 8 10 7 14 -1 2 -7 12 -13 21
-13 14 0 15 -2 3 -9 -11 -7 -7 -13 20 -24 19 -8 43 -24 53 -36 22 -24 46 -28
46 -6 0 35 33 2 34 -34 1 -22 26 -26 26 -4 0 15 2 16 10 3 8 -13 10 -12 10 3
0 10 5 15 10 12 6 -4 8 -15 5 -26 -4 -13 -2 -19 8 -19 19 0 30 -27 14 -33 -7
-2 -23 4 -36 15 -19 14 -26 16 -32 6 -5 -8 3 -19 23 -31 28 -17 29 -19 13 -31
-17 -12 -17 -14 0 -39 13 -20 21 -24 34 -18 44 25 67 83 37 94 -9 4 -12 14 -9
27 4 16 2 19 -11 14 -12 -4 -16 0 -16 15 0 15 6 21 23 21 12 0 17 4 11 8 -6 4
-14 16 -18 27 -6 16 -9 17 -16 5 -8 -13 -10 -12 -10 3 0 9 -5 17 -11 17 -14 0
-38 30 -39 47 0 6 8 9 20 6 11 -3 20 -8 20 -12 0 -4 11 -8 25 -9 19 -1 25 3
25 19 0 16 4 19 23 14 12 -4 33 -20 47 -35 14 -16 34 -30 44 -32 11 -1 21 -9
24 -17 3 -8 0 -11 -6 -7 -6 3 -14 1 -18 -5 -5 -9 -11 -7 -20 6 -20 27 -28 12
-14 -29 7 -24 20 -37 40 -44 15 -6 37 -19 48 -29 51 -49 73 -67 72 -58 -1 6
-2 18 -1 27 1 15 5 16 24 7 17 -8 28 -26 37 -60 8 -27 16 -49 19 -49 16 1 33
19 27 29 -10 16 15 13 38 -4 25 -19 46 -19 46 0 0 8 -6 15 -13 15 -8 0 -18 17
-23 38 -7 30 -14 38 -36 40 -26 3 -49 32 -25 32 8 0 7 4 -3 11 -11 8 -12 12
-2 16 17 7 15 23 -3 23 -8 0 -15 -4 -15 -9 0 -15 -69 -10 -85 6 -8 8 -15 10
-15 4 0 -6 9 -20 20 -31 12 -12 18 -25 15 -30 -8 -12 -31 9 -50 46 -12 23 -11
28 7 49 18 21 22 22 38 8 10 -9 16 -22 13 -29 -3 -10 3 -14 21 -14 31 0 35 15
5 23 -12 3 -18 10 -14 16 3 6 -1 11 -10 11 -9 0 -13 5 -10 10 3 6 1 11 -4 11
-26 3 -30 4 -35 10 -4 3 0 12 9 19 19 16 19 30 0 30 -8 0 -15 -6 -15 -12 0 -9
-4 -8 -10 2 -7 12 -10 8 -10 -14 0 -16 -3 -26 -7 -23 -3 4 -12 2 -20 -4 -10
-9 -13 -8 -13 4 0 9 -8 21 -17 26 -16 9 -16 10 -2 11 19 0 33 50 18 65 -7 7
-8 3 -3 -10 7 -17 6 -18 -8 -7 -13 10 -16 8 -21 -18 -5 -21 -11 -28 -22 -24
-13 6 -15 25 -4 59 5 13 -32 55 -49 55 -7 0 -15 6 -18 14 -3 8 -12 12 -20 9
-8 -3 -21 1 -30 8 -21 18 -41 20 -52 6z"/>
<path d="M3198 5106 c-16 -5 -28 -16 -28 -23 0 -7 0 -15 0 -18 0 -3 3 -5 7 -4
15 2 24 -32 13 -47 -10 -12 -7 -14 21 -15 24 -1 27 -3 12 -6 -30 -6 -30 -23
-1 -20 17 1 23 -4 24 -20 2 -31 25 -51 78 -64 34 -8 46 -16 42 -26 -3 -8 -6
-22 -6 -32 0 -10 -14 -22 -35 -30 -19 -7 -35 -16 -35 -20 0 -15 -50 -62 -60
-56 -6 3 -10 -2 -10 -12 0 -15 -2 -16 -10 -3 -6 9 -5 17 2 21 18 11 20 46 3
46 -9 0 -15 -10 -15 -22 0 -11 -6 -27 -12 -33 -10 -10 -10 -14 0 -21 10 -6 10
-10 -3 -21 -19 -16 -20 -40 -1 -40 8 0 16 -5 18 -12 8 -23 25 2 22 32 -4 29 8
40 21 20 10 -17 26 0 20 21 -6 19 3 24 33 20 9 -2 12 4 8 17 -4 12 0 26 9 36
18 17 65 22 65 6 0 -5 38 -47 84 -94 47 -47 90 -94 96 -106 9 -17 8 -20 -12
-21 -13 0 -31 -2 -41 -4 -9 -2 -15 1 -11 6 3 5 2 18 -1 29 -6 18 -8 18 -21 5
-14 -14 -44 -11 -44 5 0 4 -6 10 -12 13 -8 3 -13 -4 -13 -19 0 -13 6 -24 13
-24 16 0 15 -15 -3 -30 -12 -10 -18 -10 -30 0 -8 7 -21 10 -29 7 -10 -4 -12 1
-9 16 4 20 3 21 -10 5 -8 -10 -22 -18 -31 -18 -10 0 -14 -4 -11 -10 3 -5 1
-10 -6 -10 -7 0 -9 -8 -6 -21 3 -13 1 -19 -6 -16 -7 2 -17 -3 -23 -12 -14 -19
-106 -16 -178 5 -52 15 -76 7 -76 -23 0 -11 -7 -13 -26 -9 l-26 7 26 -27 c21
-23 27 -25 40 -15 9 7 13 17 10 22 -8 14 9 10 34 -7 18 -12 20 -19 12 -29 -9
-10 -6 -15 12 -21 13 -3 26 -12 30 -18 6 -8 8 -7 8 2 0 14 26 16 43 2 7 -6 23
-19 37 -31 14 -11 19 -18 13 -14 -17 8 -16 -3 2 -21 12 -13 15 -12 25 6 16 29
35 25 53 -12 l15 -32 -2 62 -3 61 38 -29 c42 -34 51 -37 42 -15 -3 9 -8 13
-11 10 -3 -2 -20 7 -39 21 -18 14 -37 23 -42 19 -13 -8 -22 10 -15 29 4 11 19
16 43 16 30 0 40 5 48 23 9 18 8 25 -4 33 -11 6 -5 9 20 9 19 0 33 -3 30 -7
-2 -5 1 -8 7 -8 6 0 21 -9 32 -20 18 -17 23 -18 30 -6 4 8 4 26 -2 41 -12 33
-12 35 1 35 5 0 8 -3 6 -7 -12 -21 14 -52 47 -59 20 -3 45 -15 57 -25 12 -10
25 -19 29 -19 10 0 6 71 -4 89 -5 8 -3 16 5 22 11 6 9 12 -8 29 -18 16 -21 27
-16 53 4 17 6 42 5 55 -1 12 -3 35 -4 52 -3 32 -37 73 -45 53 -2 -7 -11 -9
-19 -6 -9 3 -14 -1 -14 -11 0 -9 6 -19 14 -22 20 -8 28 -34 15 -50 -6 -7 -7
-19 -3 -25 4 -7 -4 -4 -18 7 -15 10 -26 21 -25 24 2 13 -16 76 -26 88 -8 10
-7 16 4 23 12 8 11 11 -4 23 -17 13 -14 46 4 46 5 0 9 6 9 14 0 17 -35 30 -72
27 -15 -1 -38 5 -50 13 -12 9 -19 16 -15 16 4 0 3 9 -3 20 -6 11 -17 20 -25
20 -8 0 -16 5 -16 10 -1 6 -2 15 -3 22 -1 15 -26 23 -26 9 0 -6 -6 -11 -14
-11 -11 0 -14 12 -12 45 2 34 -1 45 -10 41 -7 -3 -14 -2 -16 3 -2 4 -15 2 -30
-3z"/>
<path d="M2540 4690 c0 -5 -9 -10 -20 -10 -19 0 -24 -10 -21 -37 1 -7 -7 -13
-17 -13 -10 0 -29 -11 -41 -24 -14 -15 -30 -22 -40 -19 -9 3 -6 -2 7 -11 21
-17 32 -44 12 -31 -5 3 -10 1 -10 -6 0 -6 -8 -9 -20 -6 -10 3 -24 -1 -31 -9
-13 -16 -69 -19 -69 -5 0 13 37 24 51 15 7 -4 10 0 7 11 -5 27 -61 30 -83 5
-10 -12 -13 -20 -7 -20 17 0 15 -30 -3 -36 -8 -4 -12 -10 -9 -15 3 -5 -3 -9
-13 -9 -15 0 -16 -2 -3 -10 21 -14 28 -12 34 8 7 22 75 30 72 7 -1 -8 -5 -18
-9 -21 -12 -12 -8 -26 5 -18 10 6 29 10 82 18 10 1 24 10 31 19 7 9 17 17 23
17 6 0 12 10 14 22 2 12 9 23 16 26 7 2 10 -2 6 -12 -3 -9 -1 -16 4 -16 6 0
12 12 14 28 2 15 8 27 15 27 6 0 15 3 19 8 4 4 2 7 -4 7 -6 0 -9 7 -6 15 4 8
11 15 16 15 16 0 37 32 37 55 0 11 -3 14 -6 8 -7 -19 -20 -16 -26 7 -5 20 -27
28 -27 10z"/>
<path d="M3125 3881 c-55 -10 -170 -38 -255 -62 -151 -43 -158 -44 -300 -43
-129 0 -159 4 -265 31 -225 58 -433 81 -490 52 l-30 -15 2 -109 c4 -197 42
-313 143 -433 103 -123 220 -180 318 -153 50 13 124 64 200 138 139 133 151
137 225 76 233 -194 248 -203 340 -203 127 0 255 99 345 268 48 91 62 161 62
318 0 98 -2 113 -20 129 -29 26 -150 29 -275 6z"/>
<path d="M3854 3668 c4 -23 10 -47 15 -53 4 -5 16 -36 26 -67 11 -32 22 -58
25 -58 3 0 18 14 34 30 22 23 25 30 13 30 -10 0 -17 8 -17 19 0 20 14 22 39 7
9 -6 18 -4 25 5 9 12 15 13 35 3 28 -14 45 -9 34 9 -5 9 -3 9 8 0 21 -17 48 1
34 22 -5 9 -14 16 -20 16 -5 0 -30 12 -54 26 -48 28 -129 53 -175 53 -28 0
-28 -1 -22 -42z"/>
<path d="M411 3638 c-5 -13 -16 -79 -26 -148 -9 -69 -18 -135 -21 -147 -3 -15
2 -26 17 -34 18 -9 29 -7 62 12 82 46 207 22 254 -50 32 -47 32 -135 1 -181
-38 -55 -71 -74 -141 -78 -72 -4 -119 16 -153 65 l-20 30 -37 -19 c-36 -18
-37 -19 -23 -46 34 -66 104 -103 205 -110 50 -3 68 -8 58 -14 -12 -6 -14 -15
-8 -31 4 -12 6 -27 4 -34 -2 -6 5 -14 16 -18 25 -8 26 -18 5 -36 -14 -11 -14
-13 0 -21 22 -12 20 -47 -3 -72 -15 -17 -17 -30 -12 -71 3 -27 3 -68 0 -90
l-5 -40 -17 38 c-12 25 -24 37 -37 37 -18 0 -20 -7 -20 -60 0 -47 3 -60 15
-60 10 0 15 11 16 33 l0 32 16 -32 c10 -19 24 -33 35 -33 21 0 22 -1 6 -35 -9
-20 -18 -25 -47 -25 l-36 0 -1 -60 c-1 -52 1 -60 17 -60 12 0 19 7 19 20 0 12
7 20 16 20 11 0 14 -5 10 -16 -3 -9 -9 -27 -12 -41 -4 -13 -17 -28 -29 -33
-21 -8 -23 -15 -23 -82 0 -40 2 -67 5 -60 2 6 11 12 19 12 8 0 14 9 14 20 0
13 9 22 25 26 41 10 45 67 4 77 -18 5 -18 7 -3 44 9 21 23 47 30 58 13 18 14
18 14 -13 0 -25 4 -32 20 -32 14 0 20 7 20 23 0 20 3 19 30 -12 30 -34 42 -80
18 -65 -16 10 -80 5 -92 -6 -6 -6 -3 -12 7 -16 26 -10 21 -74 -9 -128 -14 -25
-30 -46 -36 -46 -6 0 -7 -8 -4 -17 4 -10 4 -14 0 -11 -9 10 -35 -19 -73 -80
-19 -29 -42 -57 -52 -63 -11 -5 -19 -17 -19 -27 0 -14 -2 -15 -10 -2 -7 11 -8
6 -5 -15 2 -17 4 -39 5 -50 1 -19 2 -18 10 3 10 24 26 29 32 10 3 -9 12 -8 31
5 22 14 27 15 27 3 0 -17 49 -31 63 -17 12 12 38 2 55 -21 7 -10 19 -18 25
-18 7 0 4 7 -7 15 -12 9 -16 20 -12 31 5 13 9 15 18 6 15 -15 42 -16 33 -2 -3
6 1 10 9 10 9 0 16 -4 16 -10 0 -5 17 -9 38 -8 22 0 44 -2 50 -6 14 -9 15 3 2
24 -7 11 -10 11 -10 2 0 -7 -5 -10 -11 -7 -6 5 -4 12 8 21 12 9 13 13 5 14 -7
0 -11 4 -7 10 3 5 12 7 20 4 8 -4 13 -9 10 -14 -2 -4 7 -13 21 -21 21 -11 27
-11 34 1 4 7 6 19 3 27 -7 17 1 16 38 -3 30 -15 31 -15 24 8 -4 13 -13 26 -19
30 -8 6 -8 8 1 8 6 0 15 -5 18 -10 4 -6 11 -8 16 -5 5 4 9 -8 9 -24 0 -17 4
-31 9 -31 5 0 8 13 7 30 -1 17 4 32 11 34 8 3 13 -2 13 -12 1 -21 23 -52 39
-52 6 0 11 -5 11 -11 0 -5 5 -7 10 -4 6 4 8 11 5 16 -4 5 1 9 9 9 9 0 16 8 17
18 0 14 2 14 9 -3 5 -11 9 -14 9 -7 1 7 5 11 10 8 5 -4 12 0 14 6 3 7 3 -16 0
-52 -6 -67 -16 -90 -38 -90 -7 0 -15 -7 -19 -15 -3 -8 -1 -15 5 -15 6 0 8 -4
4 -10 -3 -5 -12 -7 -20 -4 -8 4 -12 10 -9 15 3 5 1 9 -5 9 -5 0 -13 -5 -16
-10 -4 -6 -10 -8 -15 -5 -5 3 -11 1 -14 -4 -6 -10 22 -26 54 -30 13 -1 13 -31
-1 -31 -5 0 -8 -4 -5 -9 10 -16 -6 -42 -22 -36 -12 4 -13 3 -3 -9 10 -12 9
-13 -9 -9 -15 4 -19 11 -14 25 4 15 3 18 -6 13 -8 -5 -11 -4 -7 2 4 6 0 14 -9
17 -21 8 -24 8 -24 -5 0 -6 -6 -17 -14 -25 -13 -12 -15 -12 -13 6 1 11 5 20 9
20 4 0 -2 11 -14 25 -12 14 -24 22 -27 19 -3 -3 1 -9 9 -14 10 -6 1 -7 -25 -3
-22 3 -43 11 -47 17 -5 7 -8 4 -8 -6 0 -10 6 -18 13 -18 8 0 7 -4 -3 -11 -13
-9 -12 -10 2 -5 29 9 45 -3 44 -32 -1 -15 2 -35 6 -44 7 -14 5 -16 -9 -11 -10
4 -24 14 -31 22 -12 14 -13 14 -9 -4 3 -18 -1 -20 -32 -18 -20 1 -28 0 -18 -3
9 -3 17 -13 17 -22 0 -15 2 -15 10 -2 9 13 12 13 23 0 7 -9 24 -14 40 -12 15
2 27 -2 27 -8 0 -7 7 -5 16 4 17 18 48 20 79 5 17 -8 16 -9 -7 -6 -29 4 -38
-7 -15 -17 6 -3 3 -4 -9 -1 -15 4 -24 -2 -33 -22 -9 -19 -15 -23 -20 -14 -6
10 -12 9 -25 -4 -9 -9 -16 -12 -16 -5 0 6 -8 10 -17 8 -10 -2 -18 -10 -18 -18
0 -8 -8 -16 -19 -18 -13 -3 -16 0 -11 9 6 9 3 11 -9 6 -9 -4 -15 -3 -12 2 3 5
-4 11 -16 14 -28 8 -33 3 -14 -15 11 -12 12 -18 3 -27 -7 -7 -7 -11 -2 -10 6
2 20 -2 33 -9 18 -11 22 -10 22 3 0 8 4 15 10 15 5 0 7 -6 4 -14 -3 -8 3 -19
15 -25 16 -9 23 -7 35 11 9 12 18 19 21 17 3 -3 -6 -16 -19 -28 -23 -21 -24
-22 -62 -5 -83 36 -84 37 -74 49 13 16 -7 32 -37 29 -19 -1 -21 3 -16 30 3 17
17 42 31 56 15 14 25 24 23 23 -2 -1 -12 2 -22 7 -12 7 -20 7 -24 0 -3 -5 2
-10 11 -10 14 0 15 -3 6 -12 -9 -9 -16 -7 -32 9 -11 13 -27 19 -38 16 -21 -5
-53 48 -32 55 7 3 5 11 -7 24 -18 20 -18 21 4 10 12 -7 23 -17 26 -24 3 -10
12 -9 41 5 45 21 56 21 56 2 0 -17 16 -20 25 -5 3 6 0 10 -7 11 -7 0 -3 4 10
9 35 14 26 29 -13 23 -23 -4 -35 -2 -35 6 0 7 -11 0 -25 -15 -20 -21 -28 -25
-37 -16 -9 9 -9 12 0 12 7 0 12 8 11 18 0 10 -3 12 -6 5 -7 -20 -26 -15 -46
12 -17 23 -17 25 2 34 10 6 21 8 24 4 4 -3 9 2 13 11 7 17 44 23 44 6 0 -5 -7
-6 -17 -3 -10 4 -14 2 -10 -4 4 -6 18 -13 32 -16 20 -3 25 -1 20 11 -4 12 -3
13 9 3 13 -11 14 -8 6 20 -5 17 -7 35 -4 40 2 4 -5 13 -16 19 -17 9 -20 8 -17
-7 1 -10 6 -23 9 -29 5 -7 -9 -11 -38 -13 -30 -1 -44 2 -44 11 0 9 -3 9 -12 0
-19 -19 -48 -14 -58 11 l-9 22 0 -22 c-1 -25 -21 -32 -21 -8 0 8 -4 15 -10 15
-5 0 -10 -7 -10 -15 0 -27 -20 -15 -21 13 -1 27 -1 27 -8 3 -9 -33 -29 -38
-40 -9 l-10 23 0 -22 c-1 -32 -25 -29 -37 4 l-9 28 -30 -40 c-17 -22 -38 -46
-47 -53 -10 -7 -18 -18 -18 -23 0 -18 -54 -88 -72 -95 -10 -3 -21 -17 -25 -32
-3 -15 -38 -69 -77 -120 -39 -52 -83 -117 -99 -145 l-27 -51 0 -603 0 -603
414 0 c270 0 417 4 421 10 4 6 11 8 16 5 5 -4 9 -1 9 4 0 6 9 11 21 11 11 0
40 11 65 25 28 16 44 20 44 12 0 -8 3 -9 8 -1 4 6 14 14 22 18 8 3 -5 4 -30 1
-24 -3 -49 -10 -55 -14 -17 -14 -108 -24 -101 -12 4 6 1 9 -7 5 -8 -3 -18 -1
-22 5 -3 7 2 11 14 11 12 0 21 5 21 11 0 5 -4 8 -9 4 -5 -3 -13 0 -17 6 -4 8
-3 9 4 5 7 -4 12 -2 12 3 0 6 3 10 8 10 4 -1 9 0 12 1 3 1 13 3 23 5 34 7 127
49 127 58 0 5 -7 4 -15 -3 -8 -7 -15 -9 -15 -5 0 4 -6 3 -13 -3 -25 -21 -104
-33 -134 -20 -22 9 -24 12 -10 15 9 3 17 13 17 23 0 12 12 22 35 30 40 13 55
30 25 27 -11 -1 -20 -5 -20 -9 0 -4 -7 -5 -15 -2 -8 4 -15 1 -15 -6 0 -7 -9
-3 -20 10 -14 16 -17 26 -9 30 7 5 5 9 -6 14 -9 3 -13 10 -10 16 3 5 0 10 -7
11 -7 1 5 7 27 14 34 11 36 14 14 14 -30 1 -50 31 -21 31 16 1 16 1 0 11 -22
12 -23 32 -3 49 19 16 19 34 0 27 -8 -4 -17 -2 -20 3 -4 6 -1 10 4 10 6 0 11
5 11 11 0 5 -4 8 -9 4 -6 -3 -9 3 -8 14 0 11 5 17 10 14 6 -3 8 9 5 28 -5 33
17 109 30 107 22 -2 30 5 35 29 l5 27 -19 -25 c-20 -26 -25 -15 -10 23 5 13
17 51 27 86 9 35 25 67 33 72 10 6 11 10 4 10 -7 0 -13 7 -13 15 0 18 5 19 30
3 26 -17 37 -3 15 19 -10 10 -29 16 -42 15 -22 -3 -23 -2 -23 78 l0 82 35 -4
c31 -4 36 -1 41 21 4 15 13 53 21 86 9 33 16 68 15 78 0 9 3 17 9 17 5 0 9 9
9 20 0 29 31 103 49 117 24 18 33 15 21 -6 -15 -29 -12 -39 6 -16 16 19 16 19
12 -7 -3 -15 -2 -26 1 -23 16 9 32 -14 35 -51 3 -21 9 -62 13 -89 5 -28 8 -68
7 -90 -2 -45 11 -81 20 -55 3 8 6 26 8 40 2 14 9 25 18 25 17 0 21 -46 6 -57
-5 -3 7 -10 28 -13 27 -5 41 -15 49 -33 l12 -25 5 24 c4 15 14 25 29 27 19 3
21 8 17 35 -6 29 -5 30 6 10 6 -13 15 -23 20 -23 5 0 7 -4 4 -9 -5 -8 96 -6
120 3 16 6 42 -14 27 -21 -7 -2 -13 -10 -13 -17 0 -7 -10 -18 -22 -24 l-23
-11 22 0 c12 -1 25 4 28 9 12 20 26 10 14 -11 -10 -19 -7 -25 17 -45 23 -18
26 -25 17 -35 -10 -10 -14 -9 -19 4 -10 26 -22 20 -29 -14 -4 -18 -16 -34 -28
-38 -24 -9 -57 -3 -57 10 0 5 -7 9 -16 9 -13 0 -14 3 -5 14 16 20 -9 28 -29
10 -16 -13 -90 -9 -88 5 2 19 -3 31 -12 26 -5 -3 -7 0 -5 7 3 8 -1 22 -9 33
-14 19 -15 17 -16 -27 0 -34 -4 -48 -14 -48 -10 0 -12 -11 -10 -40 3 -30 0
-40 -11 -40 -19 0 -20 -46 -1 -53 11 -4 14 -21 13 -61 -1 -31 0 -56 3 -56 5 0
5 -164 0 -263 -2 -31 0 -60 3 -64 4 -3 1 -13 -6 -21 -10 -12 -9 -16 1 -20 10
-3 10 -7 1 -18 -6 -8 -8 -14 -3 -14 5 0 9 -53 9 -118 0 -154 -1 -152 45 -152
35 0 37 2 34 28 l-4 27 12 -28 c11 -24 17 -27 61 -27 l48 0 -20 26 c-12 15
-21 33 -21 41 0 8 -4 11 -10 8 -14 -9 -12 8 3 38 13 25 14 24 25 -32 15 -71
25 -81 79 -81 40 0 43 2 44 28 l1 27 10 -27 c13 -36 26 -36 21 0 l-4 27 16
-27 c12 -21 23 -28 46 -28 29 0 30 1 25 38 l-5 37 11 -38 c12 -38 30 -54 21
-17 -3 11 -1 20 5 20 5 0 12 -9 15 -20 6 -23 52 -28 60 -7 4 9 6 9 6 0 2 -22
31 -14 31 8 0 13 -4 18 -12 13 -8 -5 -9 0 -5 17 4 13 7 30 7 37 0 6 5 12 10
12 6 0 10 -14 10 -30 0 -18 6 -33 15 -36 8 -4 15 -12 15 -20 0 -8 10 -14 25
-14 29 0 31 7 8 32 -9 10 -13 21 -9 25 4 5 20 -7 34 -25 22 -26 34 -32 65 -32
34 0 37 2 27 19 -5 11 -10 28 -9 38 0 10 6 2 13 -17 12 -33 16 -35 60 -38 l47
-3 -15 23 c-22 34 -47 98 -39 98 9 0 40 -49 61 -95 9 -22 15 -26 21 -16 6 9
11 10 15 2 4 -6 12 -11 18 -11 6 0 3 10 -6 22 -40 55 -56 84 -56 102 0 16 3
15 20 -7 12 -14 30 -47 41 -72 16 -36 23 -44 34 -35 15 13 56 18 178 21 48 2
93 7 100 12 8 6 7 7 -5 3 -10 -3 -22 2 -27 12 -10 16 -10 16 -11 -1 0 -11 -5
-15 -11 -11 -20 12 -199 12 -199 0 0 -6 -5 -4 -10 4 -5 8 -15 15 -22 15 -7 0
-14 9 -17 20 -2 11 -6 22 -10 25 -12 9 -31 50 -31 65 0 8 -4 15 -10 15 -5 0
-10 -8 -10 -17 0 -15 -2 -15 -9 -4 -5 8 -7 33 -5 55 6 46 14 61 14 26 0 -13 3
-21 6 -17 10 10 30 -15 38 -47 4 -15 14 -39 22 -52 13 -19 20 -22 35 -13 11 5
25 6 32 2 6 -4 19 -8 27 -10 12 -1 11 1 -2 11 -10 7 -16 16 -13 19 3 4 2 5 -2
2 -3 -3 -15 3 -25 12 -16 15 -18 15 -13 1 4 -9 2 -18 -2 -21 -5 -3 -23 28 -40
69 -30 73 -32 90 -7 57 12 -17 13 -17 14 3 0 11 -11 34 -24 52 -23 32 -23 32
-34 9 -9 -18 -11 -10 -11 46 -1 41 3 67 10 67 6 0 8 -9 4 -20 -4 -13 4 -34 24
-64 17 -25 31 -48 31 -51 0 -4 13 -20 29 -36 23 -23 30 -26 35 -13 3 8 2 12
-4 9 -11 -7 -33 32 -25 44 3 5 -8 20 -24 33 -26 22 -51 58 -51 72 0 15 18 4
28 -17 l11 -22 0 22 c1 13 -8 37 -19 55 -11 18 -20 29 -20 23 0 -14 -20 17
-20 33 0 6 9 12 20 12 11 0 20 5 20 10 0 6 -8 10 -17 10 -15 0 -14 2 3 14 18
14 18 15 1 22 -10 4 -35 2 -55 -4 -20 -6 -38 -9 -41 -7 -8 9 34 34 49 30 20
-6 50 14 33 22 -14 5 -18 43 -5 43 4 0 14 -6 21 -12 11 -11 12 -6 9 24 -2 20
0 34 4 32 8 -5 11 8 9 41 -1 11 5 29 13 40 9 11 16 14 16 8 0 -21 20 -15 20 6
0 42 35 32 56 -16 l12 -28 1 39 c1 30 4 37 17 32 9 -3 20 -6 25 -6 5 0 9 -7 9
-15 0 -25 19 -17 26 11 4 16 12 23 20 20 8 -3 14 -1 14 4 0 6 5 10 10 10 6 0
10 -7 10 -15 0 -19 7 -19 26 -1 11 11 11 16 1 19 -17 8 28 8 47 1 9 -3 13 -10
10 -15 -3 -5 2 -6 10 -3 9 3 16 12 16 20 0 20 12 17 41 -10 14 -13 35 -27 47
-30 12 -4 22 -11 22 -15 0 -4 19 -28 43 -54 67 -73 72 -80 86 -117 18 -45 31
-61 42 -54 5 3 9 1 9 -4 0 -5 18 -28 40 -53 22 -24 40 -40 40 -35 0 5 14 -9
31 -30 17 -22 35 -38 40 -37 4 2 6 -4 3 -12 -5 -11 -2 -13 10 -9 9 3 16 1 16
-6 0 -6 4 -9 9 -5 11 6 10 45 -1 45 -4 0 -8 5 -8 10 0 12 -45 64 -135 154 -73
74 -146 159 -141 164 2 2 15 -8 29 -22 15 -14 32 -26 39 -26 7 0 30 -19 50
-42 21 -24 38 -38 38 -32 0 5 -8 19 -18 30 -9 10 -24 30 -33 44 -9 14 -57 54
-107 90 -69 49 -91 71 -91 88 -1 19 3 22 19 17 12 -4 20 -2 20 5 0 7 7 9 16 6
8 -3 13 -2 10 3 -8 12 20 22 39 15 8 -4 15 -1 15 5 0 6 7 11 15 11 8 0 31 9
52 21 20 11 47 22 59 23 24 3 54 28 54 46 0 7 5 6 14 -2 8 -8 10 -15 4 -19 -6
-4 -6 -9 2 -14 13 -8 32 13 24 26 -2 4 0 10 6 14 6 4 8 10 5 15 -3 4 2 10 10
14 8 3 14 2 14 -2 -1 -4 0 -23 1 -42 1 -30 3 -27 14 25 7 32 18 61 25 63 6 2
11 11 11 20 1 15 3 15 15 -2 14 -19 15 -19 21 0 3 10 10 29 15 42 13 32 12 34
-13 27 -20 -5 -21 -4 -5 5 9 6 22 8 27 5 6 -3 10 -1 10 4 0 6 -5 11 -12 11 -6
0 -2 10 10 23 20 21 47 117 33 117 -3 0 1 5 9 10 10 6 11 10 3 10 -7 0 -13 10
-13 22 0 30 -9 17 -12 -17 -2 -19 -17 -40 -50 -68 -34 -28 -47 -46 -43 -58 3
-9 0 -21 -7 -25 -6 -4 -14 -2 -16 4 -9 29 -92 -62 -92 -102 0 -26 38 -1 46 30
4 17 10 22 17 15 5 -5 6 -18 2 -28 -5 -10 -9 -24 -9 -32 -1 -7 -12 -21 -26
-30 -24 -15 -25 -15 -10 3 16 21 18 21 -32 1 -15 -6 -16 -3 -8 24 8 30 -1 43
-15 20 -4 -6 -14 -8 -22 -5 -8 3 -12 2 -8 -3 3 -5 -8 -12 -25 -16 -16 -4 -30
-10 -30 -14 0 -4 -11 -13 -25 -19 -31 -14 -35 -15 -35 -3 0 5 19 19 42 31 46
24 33 23 -62 -3 -30 -9 -57 -14 -58 -12 -9 9 11 25 31 25 13 0 31 6 42 14 22
15 25 16 59 16 15 0 26 7 29 20 3 11 9 20 14 19 4 -1 17 -1 28 0 15 1 16 4 7
13 -7 7 -12 18 -12 26 0 11 3 12 14 3 9 -7 17 -8 20 -2 3 5 15 7 27 4 22 -6
39 11 38 37 0 8 -5 4 -11 -10 -9 -21 -12 -22 -15 -7 -5 20 -4 20 -37 7 -17 -6
-26 -6 -26 1 0 5 8 13 18 16 18 7 32 22 32 36 0 4 -8 3 -19 -2 -10 -6 -21 -7
-25 -4 -3 3 -6 1 -6 -5 0 -7 -5 -12 -10 -12 -6 0 -19 -8 -30 -18 -10 -9 -46
-27 -79 -40 -42 -16 -61 -29 -61 -41 0 -21 -19 -41 -38 -41 -12 0 -12 3 -1 16
11 14 9 15 -27 8 -21 -5 -69 -8 -106 -8 -57 0 -68 -3 -78 -20 -7 -15 -21 -21
-45 -22 -33 0 -33 0 -14 14 20 14 20 14 -8 31 -44 27 -75 31 -120 16 -36 -13
-46 -13 -75 0 -19 8 -25 14 -15 15 24 0 21 15 -5 27 -32 14 -88 -10 -88 -37 0
-14 7 -20 21 -20 17 0 19 -3 10 -14 -10 -12 -19 -11 -56 7 -44 22 -52 36 -25
45 7 3 10 0 6 -7 -4 -7 0 -11 12 -11 26 0 36 27 14 39 -14 9 -12 10 13 11 27
1 28 2 13 14 -27 20 -21 30 7 12 13 -9 31 -16 38 -16 8 0 32 -12 53 -26 23
-16 40 -22 42 -15 2 6 15 9 30 5 19 -4 23 -3 14 4 -8 5 -12 18 -10 28 2 11 -4
26 -12 34 -9 8 -11 12 -5 9 5 -4 25 -10 43 -14 17 -3 33 -11 33 -16 1 -5 2
-19 3 -31 1 -28 19 -33 40 -12 9 9 20 14 23 10 4 -3 -2 -12 -12 -20 -17 -12
-15 -13 16 -20 20 -4 35 -2 37 4 5 14 22 12 57 -6 28 -15 31 -14 48 8 17 20
20 21 28 5 12 -21 36 -22 84 -1 25 10 35 20 31 29 -4 12 2 14 29 10 27 -3 37
0 45 15 6 11 17 20 25 20 8 0 15 6 15 13 0 9 2 9 9 -1 7 -11 9 -11 14 2 4 9
13 16 22 16 18 0 20 26 3 33 -10 3 -10 7 -1 17 9 10 13 7 19 -15 6 -22 8 -25
16 -12 5 9 15 14 23 11 8 -3 21 5 30 20 10 14 21 23 26 20 5 -3 18 10 28 27
17 28 21 30 27 15 5 -12 -1 -25 -20 -42 -25 -24 -37 -52 -16 -39 6 3 10 1 10
-4 0 -6 6 -11 14 -11 13 0 26 48 26 97 0 33 -27 55 -51 43 -16 -9 -19 -7 -19
11 0 14 5 19 14 16 14 -6 34 29 23 39 -10 10 -77 -41 -74 -56 3 -22 25 -42 37
-35 5 3 10 2 10 -4 0 -5 3 -17 6 -26 6 -15 4 -15 -15 -3 -20 11 -24 11 -36 -6
-13 -17 -15 -17 -21 -3 -3 10 -4 24 0 32 6 17 -19 21 -29 4 -4 -5 -17 -14 -30
-19 -17 -6 -21 -15 -18 -32 3 -18 -3 -27 -26 -41 -26 -15 -31 -16 -31 -3 0 8
6 17 13 19 7 4 6 6 -4 6 -18 1 -32 -30 -30 -69 2 -23 1 -24 -12 -7 -17 21 -28
22 -21 2 4 -8 1 -15 -5 -15 -7 0 -14 7 -18 16 -3 8 -12 13 -20 10 -8 -4 -11
-1 -8 5 4 6 13 8 20 5 7 -2 23 6 36 20 19 21 20 24 5 24 -9 0 -29 -6 -44 -14
-15 -7 -42 -16 -61 -20 -29 -5 -32 -4 -21 9 7 8 22 15 34 15 11 0 30 7 40 15
11 8 30 15 44 15 14 0 21 4 16 11 -3 6 -17 9 -29 7 -13 -3 -22 0 -21 6 1 6 -2
1 -8 -11 -11 -24 -43 -37 -50 -19 -3 7 -9 6 -18 -5 -17 -21 -64 -37 -53 -18 7
12 5 12 -6 1 -11 -11 -12 -14 -1 -21 10 -6 9 -9 -6 -13 -14 -4 -22 0 -25 14
-5 16 -9 18 -24 9 -12 -6 -25 -6 -34 0 -7 5 -25 9 -39 8 -22 0 -20 -2 15 -20
22 -11 53 -23 69 -27 16 -4 32 -14 34 -22 3 -9 -1 -11 -12 -7 -24 9 -64 -12
-45 -24 21 -13 3 -22 -20 -9 -12 6 -21 17 -21 25 0 8 -7 15 -15 15 -9 0 -12
-6 -9 -15 4 -8 2 -15 -4 -15 -5 0 -13 7 -16 15 -7 19 31 36 65 29 13 -2 4 3
-20 11 -25 8 -47 11 -50 6 -8 -11 -57 -22 -65 -14 -3 4 6 12 21 19 20 8 23 13
13 16 -8 3 -31 10 -50 17 -23 7 -36 8 -38 1 -5 -13 -102 -13 -102 0 0 6 -9 10
-20 10 -13 0 -18 -5 -14 -15 3 -8 -2 -24 -11 -37 -12 -15 -15 -17 -12 -5 4 9
2 30 -4 45 l-11 27 -15 -22 c-9 -13 -20 -23 -26 -23 -6 0 -7 3 -4 6 10 10 -12
44 -28 44 -8 0 -19 -9 -25 -21 -7 -12 -18 -18 -26 -15 -23 9 -16 -12 8 -25 14
-8 18 -14 10 -17 -24 -8 0 -22 39 -22 21 0 39 -4 39 -9 0 -11 -70 -9 -89 3 -8
5 -17 3 -22 -5 -7 -9 -7 -5 -3 14 4 17 2 27 -5 27 -6 0 -11 -4 -11 -10 0 -5
-8 -10 -17 -10 -15 0 -16 -2 -3 -10 8 -5 11 -10 5 -10 -5 0 -4 -5 3 -12 17
-17 15 -29 -3 -22 -10 4 -21 -9 -37 -41 -19 -40 -20 -47 -8 -55 13 -8 13 -10
-2 -10 -9 0 -19 -6 -22 -12 -3 -7 -3 3 0 22 3 19 15 50 25 69 19 32 19 34 2
53 -16 18 -16 21 -2 32 26 18 16 69 -22 115 -22 25 -35 35 -37 26 -3 -11 -9
-12 -28 -5 -26 10 -32 2 -12 -18 6 -6 9 -15 5 -18 -4 -4 -13 8 -21 27 -15 36
-6 50 20 29 18 -16 32 -4 16 12 -17 17 -15 28 6 28 9 0 25 -12 34 -27 10 -16
18 -22 18 -14 0 8 7 22 16 32 10 11 12 19 5 24 -6 3 -11 -2 -11 -12 0 -15 -4
-14 -20 7 -15 19 -22 22 -28 12 -5 -7 -16 -10 -25 -6 -10 3 -17 1 -17 -5 0
-14 -46 5 -76 31 -23 20 -44 24 -44 7 0 -5 -4 -7 -10 -4 -14 9 -13 -8 2 -23 6
-6 9 -14 6 -18 -9 -9 -50 35 -43 46 4 6 -2 10 -12 10 -18 0 -49 37 -40 47 3 3
10 -4 16 -15 8 -14 21 -20 41 -20 51 2 30 22 -49 47 -28 9 -32 8 -27 -5 3 -8
1 -24 -4 -35 -8 -15 -7 -19 4 -19 8 0 18 -5 22 -12 5 -8 0 -9 -14 -6 -17 5
-22 2 -22 -13 0 -19 -24 -26 -34 -10 -3 4 -24 8 -46 8 -31 0 -45 6 -56 22 -9
12 -19 19 -24 16 -5 -3 -16 8 -24 24 -9 16 -21 31 -28 34 -8 3 -5 6 6 6 13 1
17 6 13 21 -3 11 -1 20 4 20 5 0 10 -6 10 -12 1 -7 2 -20 3 -28 1 -10 10 -14
26 -12 19 2 22 0 10 -8 -17 -11 -17 -12 33 -15 41 -3 44 1 21 33 -15 22 -41
32 -28 11 4 -7 1 -10 -7 -7 -8 3 -14 11 -14 19 0 8 -6 24 -13 37 -17 30 3 29
23 -2 12 -18 22 -22 43 -18 22 4 25 2 15 -8 -20 -21 3 -50 38 -50 25 0 28 2
17 14 -9 10 -17 11 -25 4 -19 -15 -16 2 4 24 9 11 11 18 5 18 -7 0 -12 5 -12
10 0 7 7 7 20 0 11 -6 24 -9 29 -6 5 3 20 -3 33 -14 l25 -19 1 35 c2 48 -14
85 -33 78 -14 -6 -20 6 -16 30 1 4 -4 15 -10 23 -10 11 -14 11 -21 1 -6 -10
-10 -7 -14 10 -4 13 -12 21 -19 18 -14 -5 -27 26 -16 40 9 13 31 16 31 4 0 -5
8 -10 17 -10 16 0 16 1 2 16 -9 8 -23 16 -32 18 -8 1 -22 8 -30 15 -13 10 -19
9 -35 -7 -11 -11 -18 -23 -15 -26 4 -3 2 -6 -3 -6 -6 0 -20 13 -32 29 l-21 29
34 -8 c26 -6 32 -5 28 6 -2 7 -11 10 -19 7 -8 -3 -14 1 -14 11 0 19 -26 22
-33 4 -4 -10 -6 -10 -6 0 -1 6 -10 12 -21 12 -11 0 -20 6 -20 14 0 16 37 28
46 15 3 -5 10 -6 17 -2 6 4 22 7 35 8 13 0 27 7 31 14 5 8 11 9 15 3 3 -6 15
-8 25 -5 23 6 33 49 15 64 -8 6 -17 29 -20 50 -4 22 -10 39 -13 39 -11 0 -51
-40 -51 -51 0 -5 -16 -17 -35 -26 -33 -16 -36 -16 -57 3 -22 20 -100 59 -165
84 -37 14 -44 30 -13 30 18 0 30 19 13 21 -49 6 -122 3 -136 -6 -12 -7 -20 -7
-25 1 -4 6 -32 14 -62 16 -30 3 -68 11 -85 18 -16 7 -39 15 -49 17 -39 7 -28
13 22 13 40 0 52 -4 52 -15 0 -8 9 -15 19 -15 22 0 39 19 19 21 -7 1 1 4 17 8
23 5 31 12 33 34 3 21 -2 29 -22 37 -33 12 -33 30 0 30 38 0 19 17 -24 22 -36
3 -38 2 -37 -27 0 -23 7 -33 29 -43 20 -10 25 -17 16 -22 -7 -5 -20 -6 -28 -3
-8 3 -18 0 -23 -8 -6 -10 -9 -10 -9 -2 0 7 -7 10 -15 7 -8 -4 -15 -1 -15 5 0
6 5 11 10 11 6 0 10 9 10 20 0 19 -9 24 -40 21 -13 -2 -13 -1 0 8 8 6 23 11
33 11 9 0 17 5 17 10 0 6 -9 10 -20 10 -11 0 -20 6 -20 14 0 15 -24 28 -34 19
-3 -4 -1 -12 5 -20 9 -10 8 -13 -1 -13 -7 0 -18 -7 -25 -17 -11 -14 -14 -12
-26 15 -16 36 -21 38 -43 17 -8 -8 -19 -15 -24 -15 -12 0 -22 50 -21 99 l1 36
14 -33 c30 -68 116 -61 122 10 3 32 -1 40 -25 55 -20 13 -27 25 -25 41 2 12 8
20 13 17 5 -4 9 -1 9 4 0 6 7 11 15 11 8 0 15 8 15 18 0 20 39 62 57 62 17 0
21 33 11 94 -4 32 -6 61 -3 66 3 5 1 12 -5 15 -6 4 -8 15 -5 25 4 13 1 17 -12
16 -10 0 -17 5 -15 12 1 6 -3 12 -10 12 -9 0 -9 3 0 12 14 14 16 48 3 48 -6 0
1 25 15 55 13 31 24 67 24 81 0 15 4 23 10 19 19 -12 3 42 -31 106 -55 103
-126 142 -256 141 l-82 -1 5 27 c3 15 8 50 12 77 l7 50 110 0 c103 0 110 -1
111 -20 3 -55 3 -55 43 -55 22 0 43 -5 47 -12 5 -8 10 -6 14 8 9 23 2 46 -11
38 -5 -3 -9 10 -8 28 0 18 -3 48 -7 66 l-6 32 -179 0 c-177 0 -180 0 -188 -22z
m569 -1530 c0 -4 12 -8 26 -8 34 0 56 -28 42 -53 -5 -10 -7 -23 -4 -30 2 -7 5
-5 5 4 1 21 23 30 42 18 8 -5 10 -9 6 -9 -5 0 -5 -5 -1 -12 5 -7 11 -5 21 7
11 17 10 22 -14 47 l-27 28 25 0 c13 0 37 -11 52 -25 15 -14 27 -22 27 -18 0
4 5 2 12 -5 8 -8 8 -15 -3 -28 -9 -12 -10 -15 -1 -10 8 5 12 -2 12 -23 0 -17
-5 -31 -11 -31 -5 0 -7 -4 -4 -10 3 -5 0 -10 -8 -10 -11 0 -13 7 -9 22 3 14 2
19 -6 14 -18 -11 -35 3 -22 19 8 9 6 14 -6 19 -12 4 -15 2 -10 -9 3 -8 0 -15
-6 -15 -9 0 -9 -3 0 -12 24 -24 11 -27 -23 -6 -20 11 -39 18 -42 15 -3 -4 7
-11 22 -17 16 -6 36 -19 44 -29 9 -10 25 -21 36 -23 15 -3 10 -7 -19 -16 -31
-9 -43 -9 -55 1 -12 9 -13 9 -7 0 5 -9 0 -13 -13 -13 -15 0 -21 7 -22 23 l0
22 -9 -21 c-13 -32 -29 -38 -45 -18 -14 18 -14 18 -15 -3 l0 -22 -34 20 c-41
24 -82 33 -91 19 -8 -13 -46 -13 -65 1 -12 8 -11 9 5 5 30 -8 50 7 30 24 -8 7
-15 20 -15 30 0 10 -7 23 -16 30 -8 8 -23 30 -32 49 -9 20 -18 40 -20 44 -2 5
6 7 19 5 16 -2 25 -11 27 -25 2 -15 10 -23 23 -23 10 0 19 -6 19 -14 0 -19 14
-28 33 -21 18 7 10 55 -12 72 -14 11 -14 12 5 13 11 0 29 -9 39 -20 15 -17 16
-22 4 -37 -10 -12 -10 -15 -1 -9 7 4 20 2 29 -6 14 -11 16 -11 8 2 -6 11 -3
10 12 -2 27 -25 47 -24 34 1 -6 10 -7 22 -3 27 4 5 -2 2 -12 -6 -12 -9 -17
-10 -12 -3 4 7 2 22 -4 33 -7 13 -7 20 0 20 5 0 10 12 10 28 1 26 1 26 15 8 8
-11 15 -23 15 -28z m-385 -555 c1 -16 -2 -36 -7 -45 -6 -13 -5 -18 7 -18 9 0
15 -9 15 -22 0 -13 3 -18 8 -12 12 17 70 -2 68 -23 -2 -27 -14 -31 -77 -32
-49 0 -59 3 -64 19 -8 24 1 40 21 40 8 0 14 5 14 10 0 6 -8 10 -17 10 -15 0
-16 2 -3 10 13 8 12 10 -5 11 -11 1 -28 2 -37 1 -10 -1 -18 7 -21 21 l-4 22
-8 -22 c-9 -29 -25 -20 -25 13 0 22 4 25 33 24 67 -4 77 -1 77 22 0 33 23 6
25 -29z m1091 -426 c16 -1 35 -25 23 -29 -18 -6 43 -112 74 -126 23 -11 28
-18 23 -38 -8 -30 9 -32 19 -1 5 16 8 18 11 7 3 -8 19 -23 36 -33 31 -18 33
-18 46 0 13 16 14 15 9 -13 -4 -18 -1 -37 6 -44 8 -9 8 -11 1 -7 -7 4 -14 0
-18 -8 -3 -8 -11 -15 -17 -15 -9 0 -9 4 0 14 9 11 9 16 0 22 -7 4 -15 2 -17
-4 -2 -8 -11 -4 -23 10 -19 23 -19 23 -34 4 -8 -11 -18 -17 -21 -13 -4 4 -1
14 6 23 12 13 11 17 -1 25 -8 5 -17 9 -21 10 -39 7 -68 20 -68 30 0 6 10 7 23
3 l22 -6 -24 26 c-14 14 -28 26 -31 26 -4 0 -5 -21 -2 -47 12 -107 0 -163 -34
-163 -22 0 -16 17 7 23 15 4 20 11 15 22 -3 9 -1 26 5 37 8 14 8 23 1 27 -6 4
-16 19 -21 34 -8 20 -8 26 0 22 6 -4 9 -1 8 6 -2 8 0 24 5 36 8 25 -17 83 -37
83 -8 0 -8 3 2 9 9 6 11 19 6 42 -4 22 -3 29 3 21 5 -8 13 -14 18 -15z m-1102
-35 c-7 -4 2 -13 22 -23 28 -13 34 -14 34 -3 0 8 9 14 20 14 13 0 20 -7 20
-20 0 -27 16 -25 43 3 16 18 31 23 57 21 45 -3 70 -34 70 -87 0 -56 -21 -77
-80 -77 -40 0 -48 3 -58 25 -7 14 -12 39 -12 56 0 18 -4 28 -10 24 -5 -3 -10
-28 -10 -56 0 -42 -3 -49 -20 -49 -16 0 -20 7 -20 30 0 23 -4 30 -20 30 -15 0
-22 -9 -26 -30 -4 -20 -13 -30 -24 -30 -15 0 -19 10 -22 66 -1 36 0 73 3 82 4
9 1 20 -5 24 -6 4 3 8 19 8 17 0 25 -4 19 -8z m1285 -536 c9 -11 9 -15 -1 -19
-8 -4 -7 -6 5 -6 24 -1 21 -10 -10 -40 -16 -14 -26 -25 -24 -23 3 1 20 -12 38
-30 18 -17 33 -27 33 -20 0 7 -8 20 -18 30 -18 18 -18 20 0 45 11 15 28 27 38
27 10 0 22 5 25 10 17 28 55 -10 55 -56 0 -19 -4 -34 -10 -34 -5 0 -9 -6 -7
-12 1 -7 -4 -12 -11 -10 -9 2 -11 -4 -7 -17 3 -11 1 -30 -6 -42 -11 -22 -12
-22 -25 -4 -17 22 -17 20 -5 -23 7 -21 6 -32 -1 -32 -5 0 -8 -7 -5 -15 4 -8 2
-17 -2 -19 -5 -3 -17 16 -27 42 -28 69 -28 70 1 37 26 -29 26 -29 20 -5 -4 14
-21 41 -39 60 -17 19 -34 39 -39 45 -4 5 -5 -6 -2 -25 l5 -35 -18 37 c-11 25
-24 38 -37 38 -20 1 -20 1 -1 15 11 8 16 15 10 15 -5 0 -2 5 6 11 11 8 6 9
-22 7 -54 -6 -47 8 10 20 38 8 41 10 17 11 -29 2 -29 2 -11 16 25 19 50 19 65
1z"/>
<path d="M3435 3390 c-121 -166 -240 -281 -345 -333 -50 -24 -65 -37 -66 -54
-1 -13 -6 -28 -12 -35 -5 -7 -12 -27 -15 -44 -3 -17 -10 -41 -16 -52 -11 -20
-10 -20 16 -6 34 17 57 18 47 2 -4 -7 -3 -8 4 -4 7 4 12 14 12 22 0 12 4 12
20 4 17 -9 20 -7 22 12 1 13 2 30 3 38 0 8 5 21 10 29 6 11 4 13 -11 7 -17 -6
-17 -5 2 14 11 12 28 22 36 24 9 1 23 8 32 15 14 12 16 11 16 -8 0 -26 8 -27
26 -3 12 16 13 16 10 0 -1 -10 -5 -21 -9 -24 -11 -11 -8 -26 3 -19 5 3 8 0 5
-7 -5 -13 11 -46 18 -38 9 10 17 61 9 57 -11 -8 -8 33 6 66 7 16 12 31 12 33
0 9 25 29 40 32 24 5 33 18 39 58 l6 37 38 -33 c25 -23 37 -42 37 -60 0 -26
29 -77 30 -52 0 6 7 12 15 12 8 0 15 5 15 11 0 8 5 7 16 -2 13 -10 17 -10 25
2 6 10 9 5 9 -18 0 -18 5 -33 10 -33 6 0 10 -15 11 -32 1 -31 1 -32 9 -8 7 21
8 18 11 -20 1 -25 3 -52 4 -60 0 -8 -5 -37 -13 -64 -7 -26 -11 -54 -8 -62 3
-7 1 -16 -4 -19 -6 -4 -10 -14 -10 -23 0 -15 2 -15 10 -2 6 9 10 10 10 3 0
-12 -19 -28 -34 -28 -6 0 -19 -23 -31 -52 -11 -28 -27 -59 -36 -70 -24 -27
-42 -84 -26 -82 7 1 19 1 27 0 12 -1 12 -3 -2 -12 -17 -10 -14 -39 4 -39 5 0
6 6 2 13 -5 8 -4 9 4 2 6 -5 14 -37 17 -70 4 -33 9 -62 11 -64 2 -2 -13 -15
-34 -27 -20 -13 -33 -24 -28 -24 4 0 -2 -8 -15 -19 -22 -17 -22 -21 -10 -59 8
-23 17 -40 20 -37 4 2 7 -8 6 -23 0 -18 6 -28 19 -30 11 -3 16 0 11 7 -3 6
-11 8 -17 5 -7 -5 -8 -2 -3 6 5 9 14 5 32 -14 26 -28 48 -35 39 -11 -8 21 6
19 27 -5 18 -21 37 -26 37 -10 0 5 6 9 13 7 16 -3 17 31 1 63 -6 14 -18 39
-25 55 -7 17 -15 34 -17 38 -2 4 0 7 5 6 31 -5 44 2 38 22 -5 15 -4 19 4 15 6
-4 11 -18 11 -30 0 -13 7 -29 15 -36 8 -7 15 -20 15 -29 -1 -13 -3 -13 -15 3
-8 11 -18 17 -21 13 -4 -4 -2 -13 4 -20 7 -8 8 -18 4 -22 -4 -5 -1 -4 7 0 11
6 13 4 8 -7 -3 -9 -3 -19 1 -23 3 -3 7 -16 7 -27 0 -12 6 -23 14 -26 8 -3 11
0 8 6 -4 5 1 16 10 23 14 12 16 12 8 -1 -8 -13 -7 -13 9 -1 9 8 15 20 12 27
-3 7 8 17 25 23 32 11 32 6 0 -34 -15 -18 -15 -19 1 -6 17 12 38 8 38 -9 0 -7
-40 -22 -65 -24 -5 -1 -10 -14 -11 -29 -1 -22 3 -27 15 -22 11 4 9 -1 -5 -17
-34 -37 -18 -52 19 -18 49 46 67 16 22 -36 -26 -30 -34 -53 -32 -90 1 -22 29
-27 56 -9 10 6 11 3 2 -13 -14 -26 -15 -54 -2 -33 5 7 14 10 20 7 6 -4 11 -1
11 7 0 8 6 17 14 20 10 4 12 0 9 -13 -3 -11 2 -26 10 -35 14 -13 16 -13 20 7
4 23 4 23 6 1 0 -12 -12 -33 -29 -49 -18 -18 -26 -32 -20 -39 5 -6 5 -17 -2
-25 -8 -12 -9 -12 -4 3 9 28 -3 20 -16 -10 -6 -16 -11 -47 -12 -69 -2 -44 -19
-74 -43 -74 -12 0 -14 7 -10 28 7 35 -7 63 -17 35 -13 -33 -17 -91 -6 -98 5
-3 10 2 11 12 0 16 1 16 9 -2 5 -13 3 -26 -8 -37 -8 -10 -10 -18 -5 -18 14 0
37 -56 28 -69 -3 -6 -2 -11 4 -11 17 0 23 40 9 58 -12 15 -11 16 5 3 18 -14
18 -13 14 16 -4 24 -2 30 9 26 11 -4 13 2 8 28 l-6 34 26 -37 c14 -20 26 -42
26 -48 0 -5 4 -18 9 -28 19 -36 23 -69 8 -64 -5 1 -6 -8 -2 -20 l6 -23 -20 23
c-26 30 -47 20 -25 -13 12 -18 12 -24 2 -28 -10 -4 -10 -6 0 -6 17 -1 15 -31
-3 -31 -17 0 -18 -14 -5 -45 7 -17 9 -16 10 10 1 28 1 28 12 10 7 -11 18 -26
25 -33 10 -11 12 -7 7 20 -8 47 12 14 21 -34 8 -42 1 -47 -28 -21 -19 17 -19
17 -13 -7 5 -18 5 -21 -3 -10 -17 24 -26 1 -11 -27 18 -31 40 -41 40 -19 0 9
5 16 10 16 6 0 10 -7 10 -15 0 -17 16 -20 25 -5 4 6 10 8 14 6 11 -7 56 46 54
64 -2 10 0 10 3 3 3 -7 13 -13 21 -13 10 0 13 -6 8 -17 -5 -14 -4 -15 6 -6 10
10 9 17 -5 32 -12 13 -14 21 -6 26 6 4 9 1 8 -7 -2 -7 5 -12 14 -12 10 1 14
-4 11 -12 -3 -8 0 -14 6 -14 17 0 2 -26 -22 -38 -20 -11 -20 -11 6 -6 16 4 27
2 27 -5 0 -6 7 -11 15 -11 13 0 20 19 16 43 -1 5 3 6 9 2 5 -3 10 -22 10 -40
0 -26 -3 -33 -15 -29 -10 4 -15 0 -15 -15 0 -12 6 -21 15 -21 8 0 15 -4 15 -8
0 -11 -51 -35 -58 -27 -3 3 0 5 8 5 9 0 10 3 1 14 -9 11 -9 15 1 19 7 3 0 6
-15 6 -16 1 -26 -3 -23 -8 3 -5 -1 -14 -9 -21 -8 -7 -15 -19 -15 -26 0 -8 -3
-14 -6 -14 -11 0 -31 25 -28 35 2 6 -4 19 -12 30 -14 19 -16 19 -28 2 -12 -15
-14 -16 -20 -2 -3 8 -13 15 -21 15 -9 0 -13 -4 -10 -10 3 -5 3 -10 -2 -10 -15
1 -38 25 -38 39 0 8 -6 16 -14 19 -10 3 -12 0 -7 -14 4 -10 9 -39 11 -64 4
-37 3 -40 -4 -15 -5 17 -9 24 -10 17 -1 -9 -5 -9 -19 -1 -13 8 -16 21 -14 50
2 22 1 56 -3 77 l-8 37 -9 -35 c-16 -64 -18 -66 -29 -50 -8 12 -10 9 -6 -12 2
-17 0 -25 -6 -21 -6 3 -15 -1 -22 -10 -7 -11 -16 -13 -26 -6 -12 7 -12 9 1 9
12 1 12 2 -2 10 -9 6 -19 24 -23 40 -9 43 -21 37 -20 -10 0 -22 3 -40 8 -40 4
0 7 -15 7 -33 0 -20 7 -41 18 -50 9 -9 25 -32 36 -51 17 -32 17 -36 3 -50 -21
-21 -30 -20 -22 3 3 10 -1 23 -9 30 -17 14 -21 8 -30 -42 -5 -27 -3 -37 6 -37
9 0 9 -3 -2 -10 -9 -6 -10 -10 -3 -10 6 0 15 5 18 10 4 6 11 8 16 5 5 -3 6 2
2 11 -4 12 -2 15 8 12 8 -3 14 -9 15 -14 0 -5 4 -17 9 -27 4 -10 4 -45 1 -77
-5 -45 -3 -67 9 -90 9 -17 13 -36 9 -42 -10 -16 -12 -88 -3 -88 4 0 6 -16 4
-35 -2 -21 1 -35 8 -35 6 0 2 -7 -9 -15 -13 -10 -14 -14 -5 -15 11 0 11 -3 1
-15 -10 -12 -9 -15 5 -15 14 0 15 -3 5 -15 -10 -12 -10 -15 1 -15 11 0 11 -3
-1 -11 -12 -8 -12 -12 -2 -16 10 -4 10 -8 1 -19 -9 -11 -8 -14 2 -14 9 -1 8
-5 -5 -15 -19 -15 -19 -15 5 -15 l24 -1 -23 -12 c-12 -7 -19 -16 -15 -21 4 -4
1 -11 -7 -16 -12 -8 -9 -10 10 -10 24 -1 24 -1 -5 -15 l-30 -13 30 -2 c26 -1
27 -3 10 -9 -11 -5 -23 -7 -27 -5 -4 3 -9 0 -13 -6 -4 -6 6 -10 22 -11 l28 0
-25 -11 c-24 -10 -24 -10 -5 -18 19 -8 19 -9 -2 -9 -30 -1 -40 -21 -11 -21 19
0 20 -2 8 -10 -13 -8 -13 -11 -1 -19 11 -7 10 -11 -5 -20 -18 -10 -18 -10 1
-11 12 0 16 -3 9 -8 -5 -4 -10 -17 -10 -29 0 -22 4 -23 73 -23 l72 0 3 37 c2
20 8 38 13 40 7 2 9 -12 7 -37 -4 -39 -3 -40 28 -40 25 0 31 3 26 16 -3 9 -8
34 -11 57 l-5 42 16 -35 c9 -19 20 -45 25 -58 5 -12 15 -22 24 -22 17 0 20 16
5 25 -5 3 -10 16 -10 28 0 12 -8 36 -18 54 -9 17 -27 50 -40 73 -13 23 -21 44
-18 47 3 3 8 -2 12 -11 3 -9 11 -16 18 -17 14 0 86 -111 86 -132 0 -34 23 -67
47 -67 19 0 22 3 15 17 -13 26 -23 125 -12 118 5 -3 23 -35 40 -70 l31 -65
144 0 c105 0 145 3 149 13 5 9 7 9 12 0 4 -10 71 -13 285 -13 l280 0 -3 92
c-3 98 -5 101 -63 99 -35 -1 -71 19 -89 49 -9 17 -15 30 -12 30 3 0 31 -7 63
-15 66 -17 100 -19 63 -3 -14 6 -31 10 -37 9 -7 -1 -13 3 -13 9 0 5 10 10 23
10 16 0 18 3 8 9 -10 7 -5 11 18 16 32 7 51 24 29 26 -7 1 -43 2 -79 4 -48 1
-81 9 -125 30 -82 40 -46 43 59 6 63 -22 87 -27 96 -18 8 8 14 8 22 0 6 -6 18
-9 25 -6 12 4 14 63 14 329 0 293 -5 358 -24 309 -6 -16 -36 -21 -36 -5 0 5 8
6 18 3 15 -6 16 -5 2 12 -10 12 -10 16 -2 11 7 -4 19 -2 27 4 17 14 21 80 5
80 -5 0 -10 7 -10 15 0 8 5 15 10 15 15 0 12 47 -2 53 -10 4 -10 6 0 6 8 1 12
17 12 46 0 37 -3 43 -17 38 -12 -5 -14 -3 -8 7 6 9 4 11 -4 6 -9 -6 -8 -13 5
-27 9 -10 13 -20 8 -20 -5 -1 -13 -2 -19 -4 -5 -1 -14 -3 -20 -4 -5 -1 -4 -5
3 -10 10 -6 9 -13 -6 -31 -25 -31 -52 -21 -48 17 1 15 -2 34 -7 41 -6 8 -5 12
2 12 8 0 8 7 -3 21 -8 12 -12 29 -8 38 5 14 4 14 -12 2 -13 -11 -14 -16 -4
-22 7 -5 -5 -6 -27 -2 -33 5 -38 3 -27 -8 14 -16 16 -43 2 -34 -5 3 -10 1 -10
-5 0 -8 -7 -9 -17 -5 -10 4 -24 8 -32 8 -9 0 -8 5 5 14 15 11 16 15 5 22 -8 5
-10 14 -6 22 6 9 3 10 -11 5 -15 -6 -16 -5 -7 5 9 9 16 9 25 1 18 -14 29 -12
58 15 14 13 30 23 37 23 6 0 15 6 19 13 4 6 4 9 -1 5 -4 -4 -14 0 -22 10 -8 9
-11 11 -7 3 5 -10 1 -11 -15 -6 -19 6 -21 3 -17 -20 4 -22 3 -25 -9 -15 -8 7
-25 10 -37 7 -13 -3 -34 1 -48 8 l-25 14 27 1 c14 0 28 -5 30 -12 3 -7 7 -6
11 5 4 10 2 17 -6 17 -7 0 1 9 18 20 l30 20 -33 6 c-26 5 -30 9 -21 21 18 21
3 27 -20 7 -11 -10 -17 -22 -14 -27 4 -6 1 -7 -6 -3 -7 5 -10 14 -8 20 3 7 -1
13 -9 13 -8 0 -13 -6 -10 -13 8 -20 -27 -27 -41 -8 -16 23 -17 35 0 29 6 -3
26 -1 42 4 22 7 25 10 10 11 l-20 1 20 8 c11 5 27 3 37 -3 13 -8 21 -7 30 2 9
9 9 12 -1 12 -7 0 -9 5 -6 10 3 5 -1 10 -10 10 -12 0 -15 -5 -10 -17 5 -14 3
-15 -6 -6 -6 6 -19 9 -28 6 -15 -5 -15 -4 0 11 12 13 14 27 9 56 -5 26 -3 41
4 44 6 2 2 5 -8 5 -11 1 -29 -8 -40 -18 -12 -11 -33 -22 -48 -25 -22 -4 -28
-1 -28 13 0 22 20 40 51 46 33 7 40 25 18 48 -13 14 -16 24 -9 31 15 15 12 36
-4 30 -16 -6 -15 -31 2 -61 7 -13 9 -23 5 -23 -5 0 -13 10 -18 22 -7 15 -20
23 -39 25 -16 1 -33 8 -37 15 -7 10 -9 9 -9 -4 0 -10 -7 -18 -16 -18 -12 0
-15 6 -11 21 4 16 2 20 -12 16 -11 -2 -18 1 -18 9 0 8 7 14 15 14 9 0 12 3 9
7 -4 3 -2 12 3 18 8 9 6 14 -5 19 -9 3 -14 2 -11 -3 3 -5 -1 -14 -8 -20 -10
-8 -16 -9 -21 -1 -3 5 0 10 7 10 16 0 22 46 8 55 -6 3 -10 1 -10 -4 0 -19 -17
-12 -28 13 -9 21 -8 23 9 19 10 -3 19 -1 19 5 0 6 8 13 18 16 9 3 0 3 -20 0
-21 -3 -38 -1 -38 4 0 6 7 9 16 8 23 -2 29 21 8 26 -17 3 -17 4 0 21 10 9 14
17 9 17 -4 0 -1 5 7 11 13 9 13 10 0 8 -36 -4 -42 1 -36 26 6 23 3 25 -25 25
-23 0 -30 4 -26 15 4 8 1 17 -5 21 -7 4 -6 9 3 15 11 7 11 9 1 9 -10 0 -10 3
0 14 7 8 16 12 20 10 4 -2 10 1 14 7 4 7 3 9 -4 5 -5 -3 -12 0 -15 6 -3 10 -7
10 -20 -1 -18 -14 -18 -14 -21 44 -1 26 20 49 39 41 8 -3 15 0 15 6 0 6 11 8
29 5 19 -4 33 -1 40 7 7 8 20 12 30 9 10 -3 33 3 50 12 22 11 43 14 67 9 26
-5 39 -3 46 7 6 9 7 -1 3 -31 -4 -25 -11 -49 -16 -54 -5 -6 -9 -16 -9 -23 0
-25 15 -12 33 27 25 53 40 51 33 -5 -3 -27 -1 -43 5 -40 5 4 9 1 9 -4 0 -6 -4
-11 -9 -11 -5 0 -8 -11 -8 -25 -1 -23 1 -24 13 -8 7 10 14 22 14 26 0 5 7 15
15 23 8 9 15 25 15 37 0 28 -27 67 -46 67 -16 0 -19 17 -3 22 7 2 7 12 -2 31
-12 27 -33 35 -44 17 -3 -5 -28 -10 -55 -10 -26 0 -50 -4 -52 -10 -1 -5 -19
-11 -38 -13 -19 -2 -48 -9 -65 -16 -16 -7 -37 -10 -47 -8 -9 3 -26 -2 -37 -10
-11 -7 -44 -17 -73 -20 -29 -3 -65 -15 -79 -26 -28 -20 -69 -16 -69 6 0 14
-35 47 -50 47 -14 0 -13 -23 2 -38 9 -9 7 -13 -7 -18 -13 -5 -26 2 -49 27 -17
19 -37 34 -46 34 -10 0 -15 9 -14 28 1 18 -4 27 -15 28 -11 0 -12 2 -3 6 10 4
10 8 1 19 -6 8 -8 14 -3 14 5 0 5 4 -1 8 -24 18 -48 82 -42 117 3 19 2 35 -2
35 -5 0 -6 11 -4 24 3 13 0 27 -6 30 -7 5 -11 -3 -11 -19 0 -36 -16 -23 -41
33 -33 71 -52 161 -38 178 9 11 6 16 -15 24 -14 5 -26 14 -26 20 0 5 -18 33
-40 62 -21 29 -37 54 -34 57 2 2 -7 16 -20 30 -13 14 -36 50 -51 78 -15 30
-38 58 -53 65 -20 10 -28 24 -35 58 -4 25 -12 54 -16 65 -5 11 -13 31 -19 45
-15 38 -31 102 -34 135 -3 30 -3 30 -43 -25z m645 -1335 c21 -14 44 -33 49
-44 12 -22 52 -36 44 -15 -3 8 -10 14 -16 14 -7 0 -7 4 1 12 17 17 59 -32 73
-86 6 -23 18 -60 26 -84 8 -24 12 -55 9 -70 -4 -17 -3 -22 2 -14 7 10 13 0 21
-32 13 -54 14 -59 2 -52 -13 8 -8 -27 5 -39 7 -5 14 -23 17 -38 3 -21 1 -27
-9 -23 -8 3 -14 0 -14 -7 -1 -7 -14 4 -30 23 -17 19 -30 30 -30 24 0 -5 5 -15
10 -20 8 -8 6 -15 -5 -24 -12 -10 -19 -10 -27 -2 -20 20 -32 13 -15 -6 19 -21
23 -37 7 -27 -21 13 -41 -16 -34 -48 5 -25 4 -29 -10 -24 -19 7 -20 3 -6 -23
7 -14 5 -19 -10 -23 -27 -7 -120 25 -120 41 0 6 -7 12 -15 12 -8 0 -15 4 -15
8 0 5 15 7 33 5 l32 -4 -40 20 c-37 18 -38 20 -18 26 13 4 21 11 18 15 -12 19
31 19 63 0 l34 -21 -6 28 c-4 15 -3 23 1 17 4 -6 22 -11 40 -10 24 1 29 4 21
14 -7 8 -7 12 1 12 7 0 9 5 6 10 -9 15 7 12 31 -4 18 -13 21 -13 21 0 0 8 -5
14 -10 14 -5 0 -5 6 2 13 7 10 7 17 0 24 -8 8 -7 13 3 18 7 5 10 5 6 0 -10
-10 10 -35 27 -35 19 0 24 34 9 55 -9 11 -21 16 -38 13 -19 -4 -35 4 -65 32
-22 21 -43 35 -47 31 -4 -3 -4 0 0 7 8 14 45 -1 59 -24 4 -8 18 -14 30 -14 20
0 19 3 -11 26 -17 14 -37 35 -44 47 -11 22 -11 22 11 3 25 -23 39 -16 16 8
-10 9 -12 16 -5 16 6 0 18 -7 27 -15 8 -9 18 -13 21 -10 7 7 -40 41 -51 37 -5
-1 -6 2 -3 7 3 5 -4 20 -15 35 -16 21 -17 26 -5 26 8 0 18 -4 21 -10 3 -5 14
-14 24 -19 14 -8 17 -6 16 12 -1 12 -12 25 -27 32 -14 5 -26 13 -27 18 0 4 -3
7 -6 7 -3 0 -17 12 -31 27 -14 16 -22 21 -18 13 4 -8 -8 -1 -28 15 -33 28 -56
75 -36 75 4 0 26 -11 48 -25z m166 -910 c14 -14 31 -25 38 -25 7 0 21 -10 32
-22 l19 -21 -33 6 c-28 6 -31 4 -20 -7 7 -7 27 -18 43 -24 28 -10 27 -11 -15
-6 -25 3 -58 10 -74 15 -41 13 -45 3 -7 -18 18 -10 42 -26 53 -35 31 -26 82
-20 71 8 -3 8 0 14 6 14 6 0 11 -9 11 -20 0 -11 -4 -20 -10 -20 -5 0 -10 -10
-10 -22 -1 -13 -7 -40 -14 -61 -9 -23 -10 -39 -4 -43 21 -13 -9 -25 -37 -14
-16 6 -44 11 -64 11 -63 1 -131 20 -142 40 -6 13 -6 19 1 19 5 0 10 9 10 20 0
11 6 23 14 26 8 3 15 13 15 22 0 41 10 76 24 87 9 7 12 16 8 24 -6 10 -12 9
-25 -4 -9 -9 -16 -12 -16 -6 0 6 9 15 20 21 11 6 20 7 20 3 0 -4 9 7 20 25 24
39 33 40 66 7z m-60 -304 c23 -6 48 -19 55 -28 10 -12 10 -14 2 -9 -7 4 -13 3
-13 -2 0 -10 52 -32 76 -32 8 0 11 6 8 15 -4 8 -2 15 4 15 12 0 24 -28 17 -40
-3 -4 -22 -4 -44 1 -56 12 -171 8 -171 -7 0 -7 15 -11 42 -9 30 2 49 -2 66
-16 15 -11 19 -19 11 -19 -15 -1 47 -30 62 -30 5 0 9 7 9 15 0 8 4 15 9 15 16
0 21 -34 11 -70 -6 -19 -6 -38 -1 -43 5 -5 5 -23 2 -40 -4 -18 -6 -51 -5 -74
2 -24 1 -43 -1 -43 -6 0 -55 50 -55 56 0 3 10 2 22 -1 17 -6 20 -4 15 9 -4 9
-2 27 3 41 8 21 7 25 -9 25 -10 0 -24 7 -32 16 -11 13 -9 14 14 9 28 -7 27 -8
31 45 2 26 -43 40 -118 38 -46 -1 -80 4 -96 13 -14 8 -26 15 -28 15 -1 1 2 13
8 28 5 15 14 24 20 21 18 -11 11 21 -9 39 -11 10 -16 25 -14 41 4 20 10 23 37
21 17 -2 50 -8 72 -15z m-232 -286 c-4 14 4 9 25 -15 17 -19 31 -38 31 -42 0
-4 5 -8 11 -8 8 0 10 16 5 53 -4 34 -3 47 3 38 5 -8 12 -46 16 -85 10 -118 27
-209 43 -234 8 -12 12 -25 9 -29 -12 -11 -57 27 -57 48 0 11 -16 48 -35 80
-38 66 -46 98 -14 59 l20 -25 -6 25 c-5 23 -4 22 12 -5 12 -21 18 -25 20 -15
5 24 -22 82 -52 110 l-26 25 10 -28 c6 -15 9 -27 6 -27 -6 0 -85 112 -85 121
0 5 16 -8 35 -29 24 -25 33 -31 29 -17z"/>
<path d="M1765 3362 c5 -23 0 -32 -23 -49 l-30 -22 4 -103 c3 -57 5 -121 6
-143 2 -41 -3 -73 -14 -90 -12 -19 -12 -80 0 -100 6 -11 12 -14 12 -7 0 6 6
11 13 10 7 -2 11 6 9 20 -2 21 -1 22 14 8 8 -9 20 -14 25 -11 5 4 9 1 9 -4 0
-6 -4 -11 -10 -11 -17 0 -11 -21 17 -54 15 -17 24 -23 20 -12 -4 10 -3 24 2
30 9 11 -9 101 -25 128 -4 6 -3 8 4 4 5 -3 12 -3 15 1 2 5 2 1 0 -7 -2 -9 6
-5 17 9 11 13 20 31 20 40 0 15 30 -41 44 -81 6 -21 26 -24 26 -5 0 8 3 7 10
-3 7 -12 12 -12 22 -2 27 27 40 14 32 -30 -4 -24 -8 -51 -8 -60 0 -9 -5 -14
-10 -11 -5 4 -7 -8 -3 -28 4 -20 3 -29 -2 -21 -14 23 -21 -13 -8 -42 13 -29
33 -36 23 -8 -4 11 0 9 12 -7 10 -13 17 -33 15 -45 -6 -29 37 -75 78 -83 17
-3 26 -9 20 -13 -8 -5 -8 -14 3 -34 8 -17 16 -22 18 -14 6 16 65 12 84 -6 14
-15 34 -59 34 -77 0 -5 -20 1 -44 15 -24 13 -47 22 -50 19 -3 -3 -8 2 -12 11
-3 9 -10 14 -14 11 -4 -3 -13 9 -20 25 -16 39 -40 60 -40 35 0 -32 32 -94 46
-88 13 5 14 -21 1 -33 -11 -11 -8 -46 3 -39 6 3 10 -1 10 -9 0 -8 -6 -13 -13
-11 -9 4 -12 -8 -12 -42 0 -27 3 -53 7 -59 4 -7 2 -17 -6 -23 -15 -13 -10 -55
5 -45 5 3 25 -11 44 -30 19 -20 35 -34 35 -31 0 3 10 -5 22 -17 21 -21 22 -21
29 -2 10 26 11 66 1 60 -5 -3 -9 1 -9 9 0 8 5 15 11 15 6 0 4 4 -4 10 -8 5
-11 12 -8 16 4 4 4 14 -1 23 -5 9 -6 24 -2 34 6 17 9 17 35 -4 l29 -23 -6 25
c-17 63 -19 74 -9 60 6 -8 16 -11 24 -8 10 3 18 -7 26 -37 18 -69 81 -124 83
-73 1 19 2 19 12 -5 13 -33 32 -36 47 -8 12 23 32 28 24 6 -3 -8 0 -17 6 -21
15 -9 40 13 40 36 0 11 6 19 14 19 9 0 12 7 9 23 -4 18 -3 19 6 7 6 -8 11 -10
11 -5 0 6 4 4 8 -2 6 -9 21 -1 55 31 26 24 61 49 77 56 17 7 30 16 30 21 0 5
14 9 31 9 41 0 29 -15 -24 -28 -43 -11 -107 -65 -93 -79 4 -5 18 4 31 20 13
15 30 27 38 27 8 0 20 7 27 15 7 8 18 15 25 15 6 0 25 6 41 14 41 19 104 29
104 16 0 -5 5 -10 10 -10 6 0 10 7 10 15 0 8 -5 15 -10 15 -11 0 -10 31 2 40
8 6 11 27 9 60 l-2 25 -15 -27 c-8 -16 -17 -28 -20 -28 -2 0 3 15 13 33 15 28
19 84 7 96 -2 3 -12 -6 -22 -19 -33 -45 -97 -102 -137 -123 -30 -16 -59 -21
-120 -21 -134 -1 -192 26 -280 130 -29 33 -57 58 -65 56 -9 -3 -11 1 -7 12 4
9 2 16 -3 16 -6 0 -10 12 -10 28 1 15 -2 66 -6 113 -7 95 5 141 32 118 12 -9
14 -6 14 20 0 25 7 35 40 56 22 14 46 25 54 25 8 0 25 4 38 9 78 31 128 41
148 29 15 -10 22 -10 31 -1 9 9 19 7 40 -12 37 -31 130 -65 177 -65 20 0 60
11 87 24 l50 23 -55 25 c-30 14 -103 62 -162 106 -124 93 -158 104 -221 72
-23 -11 -73 -49 -110 -85 -174 -164 -301 -154 -491 39 -48 50 -109 117 -134
149 -25 31 -47 57 -49 57 -3 0 -2 -13 2 -28z"/>
<path d="M2475 2945 c-27 -13 -58 -24 -67 -24 -10 -1 -22 -10 -28 -22 -10 -17
-7 -24 14 -44 25 -24 36 -65 16 -65 -6 0 -6 -9 0 -26 13 -33 13 -47 0 -39 -5
3 -10 3 -10 -2 0 -15 15 -31 50 -52 40 -24 153 -29 209 -10 27 10 30 13 19 27
-10 12 -10 16 0 19 6 3 12 9 12 14 0 5 -32 7 -72 5 -91 -4 -123 6 -137 46 -14
40 -15 39 12 29 14 -6 30 -6 38 0 11 7 8 9 -9 9 -21 0 -22 2 -8 15 11 12 25
14 50 10 19 -4 41 -3 48 1 18 11 79 5 101 -11 18 -13 18 -13 0 -18 -16 -4 -16
-5 -1 -6 10 0 32 14 50 31 18 18 40 31 49 30 9 -2 22 4 28 12 11 13 3 20 -52
46 -35 16 -71 30 -80 30 -8 0 -17 5 -19 11 -2 7 -16 5 -40 -7 -34 -16 -39 -16
-77 0 -23 9 -42 16 -44 16 -1 -1 -24 -12 -52 -25z"/>
<path d="M1685 2818 c-4 -18 -12 -39 -17 -46 -6 -6 -8 -26 -4 -42 3 -17 1 -30
-4 -30 -5 0 -10 11 -12 25 -2 14 -7 26 -13 27 -20 3 -59 -94 -61 -151 -4 -82
-12 -129 -30 -163 -8 -16 -13 -32 -11 -34 4 -5 -7 -66 -19 -108 -5 -16 -2 -15
27 6 19 14 46 28 61 32 39 9 113 69 116 95 3 19 6 20 20 9 9 -7 13 -8 10 -3
-3 6 0 16 8 23 12 11 17 8 28 -19 8 -19 16 -27 20 -20 4 6 0 18 -8 27 -23 22
-36 49 -38 78 -1 15 -6 26 -10 26 -4 0 -8 6 -8 13 0 7 -14 41 -31 76 -22 45
-29 70 -24 89 5 21 8 23 16 11 7 -9 8 6 3 46 -8 72 -10 76 -19 33z"/>
<path d="M2840 2339 c-14 -6 -33 -12 -42 -14 -44 -9 -108 -45 -108 -61 0 -13
6 -12 34 10 l35 26 -14 -27 c-21 -40 -18 -53 10 -53 14 0 25 -4 25 -9 0 -5 -9
-7 -20 -4 -14 4 -20 0 -20 -11 0 -10 9 -16 23 -17 21 -1 21 -1 -3 -9 -24 -8
-23 -8 8 -9 22 -1 32 3 30 12 -2 6 2 13 7 14 6 0 9 -3 7 -8 -5 -19 38 12 55
39 10 15 23 33 30 40 7 7 13 17 13 22 0 5 3 15 6 24 4 11 1 16 -11 16 -9 0
-14 4 -11 9 5 7 -18 24 -27 20 -1 0 -13 -5 -27 -10z"/>
<path d="M2330 2165 c7 -17 6 -25 -1 -25 -6 0 -9 -6 -6 -14 3 -8 3 -17 -1 -21
-11 -11 -1 -72 19 -111 10 -21 19 -43 19 -50 0 -6 7 -17 15 -24 13 -10 15 -9
15 12 0 13 7 34 16 47 15 20 15 32 4 97 -7 41 -19 79 -26 85 -11 9 -14 8 -14
-2 0 -8 -7 -4 -16 9 -21 30 -36 28 -24 -3z"/>
<path d="M2835 2164 c-22 -13 -49 -24 -59 -24 -11 0 -16 -3 -13 -7 4 -3 -3
-11 -15 -17 -13 -6 -25 -20 -27 -31 -4 -23 -36 -67 -43 -59 -3 2 -10 -1 -16
-8 -8 -10 -3 -23 18 -51 15 -21 31 -34 34 -28 3 5 15 7 27 4 15 -4 29 4 51 28
39 43 89 153 86 190 -1 16 -2 29 -3 28 0 0 -18 -12 -40 -25z"/>
<path d="M4755 2147 c-6 -7 -9 -22 -7 -35 2 -13 -2 -30 -8 -38 -10 -11 -9 -14
6 -15 11 0 14 -3 7 -6 -25 -9 -13 -22 16 -17 28 6 28 6 26 -37 -2 -24 -1 -38
2 -31 8 19 23 14 23 -9 0 -11 -4 -18 -9 -15 -9 6 -24 -35 -16 -43 3 -2 5 1 5
8 0 8 5 7 16 -3 18 -19 38 -21 28 -3 -6 10 -4 10 7 0 7 -7 20 -13 29 -13 9 0
11 3 5 8 -5 4 -11 16 -12 27 -1 18 0 18 18 -4 24 -29 24 -48 2 -54 -16 -4 -16
-5 -1 -6 9 0 21 -14 27 -31 5 -16 13 -30 17 -30 3 0 4 7 0 15 -3 9 1 15 11 15
13 0 13 3 3 15 -11 13 -15 13 -22 3 -7 -9 -8 -4 -5 15 3 19 -3 40 -19 63 -13
19 -24 39 -24 45 0 23 -32 58 -48 52 -15 -6 -15 -4 -4 9 11 14 10 20 -8 38
-11 11 -18 25 -15 30 4 6 -1 13 -10 16 -8 4 -14 13 -13 22 4 19 -14 25 -27 9z"/>
<path d="M2090 1990 c0 -16 -4 -21 -16 -16 -12 5 -15 2 -10 -10 3 -8 6 -18 6
-21 0 -3 6 -1 13 5 10 8 13 6 13 -8 0 -10 -4 -17 -8 -14 -4 2 -6 -4 -5 -14 1
-21 27 -26 27 -5 0 16 27 17 32 1 6 -17 -14 -71 -30 -81 -10 -6 -10 -12 -2
-22 6 -7 10 -17 9 -21 -1 -5 1 -21 5 -36 10 -34 -15 -66 -33 -44 -6 7 -7 17
-3 21 4 5 1 5 -5 1 -7 -4 -13 -2 -13 3 0 23 -20 10 -26 -16 -4 -16 -11 -31
-16 -34 -5 -3 -10 -13 -11 -21 -2 -8 -17 -32 -35 -54 -36 -43 -39 -54 -17 -54
9 0 18 -6 21 -14 8 -20 44 -27 51 -10 3 8 11 13 18 12 18 -4 67 53 62 72 -5
18 19 44 32 35 5 -3 12 -1 16 4 3 5 -1 14 -10 18 -11 7 -12 15 -6 38 l9 30 1
-27 c1 -22 6 -28 22 -28 14 0 19 5 16 14 -6 16 16 40 26 29 16 -16 5 37 -12
58 l-19 24 -15 -35 -16 -35 6 59 c4 41 3 57 -5 52 -6 -3 -13 -2 -17 4 -3 5 1
10 9 10 18 0 35 53 29 90 -5 33 -22 48 -61 56 -28 6 -32 4 -32 -16z"/>
<path d="M2624 1955 c9 -13 16 -32 16 -42 -1 -11 -6 -5 -15 15 -8 17 -18 32
-22 32 -4 0 -18 -15 -30 -33 -17 -24 -23 -48 -23 -86 0 -29 4 -50 9 -47 5 4 7
-3 4 -14 -4 -14 0 -20 11 -20 9 0 15 -5 14 -11 -6 -25 19 -18 35 10 12 21 16
44 12 82 -4 52 -3 53 13 34 9 -11 16 -18 14 -16 -1 2 4 11 12 20 8 9 16 18 18
21 6 10 -44 70 -53 65 -5 -4 -9 -1 -9 4 0 6 -5 11 -11 11 -7 0 -5 -10 5 -25z"/>
<path d="M1676 1888 c6 -19 5 -21 -8 -11 -16 14 -29 8 -22 -11 3 -7 -6 -12
-23 -11 -21 0 -27 -4 -25 -17 2 -12 -2 -16 -13 -12 -8 3 -15 10 -15 16 0 5 -5
6 -11 3 -18 -12 34 -68 63 -69 27 -2 27 5 0 37 -9 9 -10 17 -4 17 15 0 52 -49
52 -70 0 -10 12 -26 27 -35 l27 -18 -22 28 c-23 29 -29 65 -12 65 6 0 10 -5
10 -11 0 -6 7 -17 15 -25 8 -9 15 -28 15 -43 0 -16 7 -34 15 -41 12 -10 15
-10 15 2 0 12 8 14 40 8 23 -4 40 -3 40 2 0 5 9 7 20 3 15 -5 18 -3 14 8 -4
11 1 13 20 10 30 -6 59 14 52 34 -3 7 -1 13 4 13 6 0 10 -5 10 -11 0 -5 5 -7
10 -4 15 9 -6 26 -79 63 -35 18 -70 31 -78 28 -7 -3 -13 1 -13 8 0 10 -7 12
-22 8 -17 -4 -20 -2 -15 11 5 12 -1 19 -18 23 -13 3 -28 3 -33 0 -6 -3 -12 1
-16 9 -9 25 -28 18 -20 -7z"/>
<path d="M3470 1791 c-6 -12 -7 -21 -3 -21 4 0 2 -4 -6 -9 -7 -5 -16 -30 -19
-57 -5 -40 -7 -44 -12 -24 -6 24 -7 24 -11 -6 -4 -22 -2 -31 7 -27 7 2 15 -1
20 -8 4 -7 2 -15 -4 -17 -7 -2 -12 -11 -12 -20 0 -13 5 -11 20 8 21 27 26 45
10 35 -12 -7 -13 5 -2 23 11 16 33 -53 25 -76 -4 -10 -2 -13 5 -8 7 4 15 1 18
-8 3 -9 11 -16 16 -16 6 0 7 7 4 16 -9 23 3 37 20 23 11 -9 14 -9 14 1 0 7 6
10 13 7 19 -7 10 38 -10 55 -12 9 -16 9 -24 -3 -6 -10 -9 -5 -9 17 0 17 -8 49
-17 70 -9 22 -17 42 -17 46 -2 18 -16 17 -26 -1z"/>
<path d="M3625 1476 c-37 -43 -46 -67 -40 -98 6 -23 4 -29 -6 -23 -9 6 -11 3
-6 -9 4 -10 7 -26 7 -37 0 -10 5 -19 11 -19 5 0 7 5 4 11 -9 14 4 64 14 53 5
-5 14 -37 21 -71 8 -39 18 -63 26 -63 10 0 12 -12 7 -48 -4 -41 -2 -50 12 -56
15 -5 17 -1 13 31 -3 21 0 48 5 61 8 16 7 26 -1 34 -7 7 -12 23 -12 36 0 13
-4 21 -9 18 -4 -3 -6 6 -3 19 6 31 -5 33 -18 3 -10 -23 -10 -23 -8 2 1 14 -1
31 -6 38 -15 25 0 21 32 -9 18 -17 37 -27 42 -24 6 4 10 -8 10 -29 0 -20 5
-36 10 -36 17 0 11 79 -7 98 -23 24 -52 74 -69 119 l-9 22 -20 -23z"/>
<path d="M3014 391 c4 -5 0 -11 -6 -14 -10 -3 -9 -9 3 -23 19 -21 54 -97 62
-132 7 -29 -20 -27 -37 3 -21 37 -39 61 -33 43 3 -9 9 -33 13 -54 l7 -38 -37
37 c-33 33 -41 33 -37 0 2 -17 -39 -3 -52 18 -15 24 -28 25 -20 2 6 -16 3 -15
-17 2 -13 11 -20 14 -16 8 4 -7 3 -13 -3 -13 -5 0 -21 24 -35 53 -30 62 -32
59 -10 -14 24 -79 25 -99 6 -99 -11 1 -28 24 -46 63 -15 34 -30 56 -33 50 -2
-7 3 -23 11 -35 22 -32 21 -85 -1 -83 -10 0 -18 3 -19 5 -3 16 -26 50 -35 50
-6 0 -6 -7 1 -19 15 -28 12 -51 -5 -51 -8 0 -15 7 -15 15 0 8 -6 14 -12 12 -8
-1 -13 7 -12 20 0 12 -3 20 -6 18 -4 -2 -24 25 -45 60 -21 36 -39 65 -42 65
-2 0 12 -30 31 -67 19 -38 40 -80 45 -95 10 -27 9 -28 -22 -27 -25 0 -28 2
-13 8 19 7 19 8 -3 14 -12 3 -25 15 -28 26 -3 12 -9 21 -14 21 -4 0 1 -19 11
-42 l19 -43 198 -1 c299 -1 533 21 533 52 0 8 -4 14 -9 14 -5 0 -12 8 -14 18
-3 10 -5 7 -6 -10 -1 -20 -5 -26 -16 -22 -8 4 -15 12 -15 20 0 8 -4 14 -10 14
-5 0 -7 7 -4 15 4 9 0 15 -9 15 -11 0 -13 -6 -9 -22 4 -17 2 -20 -12 -15 -10
4 -20 7 -22 7 -2 0 -4 6 -4 13 0 8 -13 37 -28 65 -20 36 -32 48 -41 43 -9 -6
-9 -10 -2 -12 6 -2 17 -25 25 -51 11 -39 11 -48 0 -52 -14 -5 -32 17 -77 96
-30 52 -33 63 -14 52 8 -5 8 -2 -2 9 -14 18 -26 23 -17 8z"/>
<path d="M3191 116 c-1 -13 -5 -16 -13 -9 -14 10 -41 10 -75 -1 -16 -5 -23 -3
-23 5 0 7 -7 5 -16 -7 -11 -13 -17 -15 -20 -6 -3 6 -16 12 -29 12 -13 0 -26
-6 -28 -12 -4 -10 -8 -9 -16 2 -9 13 -11 12 -11 -3 0 -16 -7 -18 -52 -14 -29
3 -53 6 -53 7 0 1 -12 3 -27 4 -15 2 -25 -1 -22 -5 3 -5 -15 -8 -38 -7 -38 1
-98 -15 -98 -25 0 -2 17 -3 38 -1 20 1 134 5 252 8 118 3 249 9 290 12 89 7
83 7 140 0 30 -3 39 -2 25 4 -16 7 -14 9 15 9 27 1 32 -2 20 -10 -12 -8 -12
-10 -1 -7 8 2 15 11 16 19 2 11 -11 14 -71 12 -65 -3 -74 -1 -74 14 -1 16 -2
16 -11 -1 -8 -13 -13 -15 -19 -6 -9 14 -80 3 -81 -14 -1 -6 -5 0 -9 14 -6 19
-8 20 -9 6z"/>
</g>
</svg>
